<svg width="24" height="24" viewBox="0 0 25 24" fill="none" xmlns="http://www.w3.org/2000/svg">
<path fill-rule="evenodd" clip-rule="evenodd" d="M18.2124 4.51072C18.4497 4.27384 18.7716 4.14062 19.1075 4.14062C19.4434 4.14062 19.7653 4.27384 20.0026 4.51072C20.2398 4.74758 20.3729 5.06865 20.3729 5.40327C20.3729 5.73788 20.2398 6.05896 20.0026 6.29581L12.1943 14.0918L9.80813 14.6873L10.4043 12.3065L18.2124 4.51072ZM19.1075 3.14062C18.5069 3.14062 17.9308 3.37882 17.5059 3.80306L9.59965 11.6968C9.53547 11.7609 9.48993 11.8412 9.4679 11.9292L8.63567 15.2528C8.59301 15.4232 8.64286 15.6035 8.76701 15.7277C8.89115 15.8519 9.07138 15.9019 9.24178 15.8594L12.5707 15.0285C12.6586 15.0065 12.7388 14.9612 12.8029 14.8972L20.7091 7.00348C21.1341 6.57921 21.3729 6.00361 21.3729 5.40327C21.3729 4.80292 21.1341 4.22732 20.7091 3.80306C20.2842 3.37882 19.7081 3.14062 19.1075 3.14062ZM5.79154 4.90328C5.21775 4.90328 4.66729 5.13085 4.26131 5.53619C3.85531 5.94155 3.62708 6.49151 3.62708 7.06512V18.698C3.62708 19.2716 3.85531 19.8215 4.26131 20.2269C4.66729 20.6322 5.21775 20.8598 5.79154 20.8598H17.4428C18.0166 20.8598 18.5671 20.6322 18.9731 20.2269C19.3791 19.8215 19.6073 19.2716 19.6073 18.698V12.8815C19.6073 12.6054 19.3834 12.3815 19.1073 12.3815C18.8311 12.3815 18.6073 12.6054 18.6073 12.8815V18.698C18.6073 19.0058 18.4848 19.3013 18.2665 19.5192C18.0482 19.7372 17.7519 19.8598 17.4428 19.8598H5.79154C5.48245 19.8598 5.18618 19.7372 4.96786 19.5192C4.74957 19.3013 4.62708 19.0058 4.62708 18.698V7.06512C4.62708 6.75723 4.74957 6.4618 4.96786 6.24385C5.18618 6.02588 5.48245 5.90328 5.79154 5.90328H11.6172C11.8933 5.90328 12.1172 5.67942 12.1172 5.40328C12.1172 5.12714 11.8933 4.90328 11.6172 4.90328H5.79154Z" fill="#2847A0"/>
</svg>
