<svg width="24" height="24" viewBox="0 0 25 24" fill="none" xmlns="http://www.w3.org/2000/svg">
<path fill-rule="evenodd" clip-rule="evenodd" d="M21.5 3L9.5 3V6H16.5H17.5C18.0523 6 18.5 6.44772 18.5 7V8V16H21.5V3ZM8.5 3V6H6.5C5.94772 6 5.5 6.44772 5.5 7V11H3.5C2.94772 11 2.5 11.4477 2.5 12V21C2.5 21.5523 2.94771 22 3.5 22H12.5C13.0523 22 13.5 21.5523 13.5 21V19H17.5C18.0523 19 18.5 18.5523 18.5 18V17H21.5C22.0523 17 22.5 16.5523 22.5 16V3C22.5 2.44772 22.0523 2 21.5 2H9.5C8.94772 2 8.5 2.44772 8.5 3ZM13.5 18H17.5V17V16V8C17.5 7.44772 17.0523 7 16.5 7H9.5H8.5H6.5V11H12.5C13.0523 11 13.5 11.4477 13.5 12V18ZM3.5 12H12.5V21H3.5L3.5 12Z" fill="#2847A0"/>
</svg>
