<svg width="1440" height="80" viewBox="0 0 1440 80" fill="none" xmlns="http://www.w3.org/2000/svg">
<rect width="1440" height="80" fill="white"/>
<path d="M39.6153 21.6447C39.3087 21.7522 39.0173 21.875 38.7259 21.9978C38.4345 22.1206 38.1432 22.2434 37.8671 22.3662C31.9628 25.0371 26.81 29.7956 26.3959 34.1857C26.1812 36.4268 26.7487 38.7293 28.0522 40.8936C29.3711 43.0888 31.8248 45.0075 32.9596 47.2486C35.122 51.4698 33.4811 56.4586 28.0522 59.1142C28.727 58.93 29.3864 58.7151 30.0305 58.4695C38.1738 55.4302 41.563 48.8603 38.4345 43.0427C37.2996 40.909 35.03 39.1284 33.7571 37.0562C31.3341 33.0805 32.4996 28.675 35.6281 25.2366C36.7936 23.9626 38.2505 22.7806 39.9834 21.7982C40.2288 21.6601 40.4742 21.5219 40.7349 21.3838C40.9956 21.2456 41.2563 21.1228 41.517 21C40.8882 21.2149 40.2441 21.4145 39.6153 21.6447Z" fill="url(#paint0_linear_17924_130689)"/>
<path d="M32.8063 48.5687C31.6868 45.9285 28.957 43.626 27.4081 40.955C25.9512 38.453 25.4451 35.8281 25.9972 33.2647C26.8867 29.1048 31.4874 24.5152 37.3917 22.0898C37.085 22.1973 36.7782 22.3047 36.4716 22.4122C30.5366 24.6226 25.7365 28.9667 24.4636 32.9116C22.9761 37.5166 25.2151 41.7072 29.0797 45.8364C32.9903 50.0116 31.9628 55.6604 26.8714 58.8686C26.442 59.1448 25.9666 59.4058 25.4758 59.6514C25.1998 59.7895 24.9237 59.9124 24.6323 60.0352C24.9391 59.9431 25.2458 59.8356 25.5525 59.7128C25.8592 59.6054 26.1506 59.4826 26.4266 59.3598C26.9634 59.1295 27.4695 58.8839 27.9449 58.623C31.2267 56.8116 33.0517 54.064 33.297 51.2857C33.3584 50.3339 33.1743 49.4283 32.8063 48.5687Z" fill="url(#paint1_linear_17924_130689)"/>
<path d="M80.6076 37.8704C79.8103 37.6095 79.0281 37.3639 78.2614 37.1336C77.4947 36.9034 76.8352 36.6578 76.2523 36.3815C75.6697 36.1052 75.225 35.7675 74.9183 35.3991C74.6116 35.0307 74.5349 34.5548 74.6729 34.0022C74.8109 33.3421 75.1483 32.9124 75.6697 32.6821C76.1912 32.4519 76.7431 32.3444 77.326 32.3444C78.2154 32.3751 79.0131 32.544 79.7182 32.851C80.4238 33.158 81.0678 33.4189 81.6507 33.6338C81.8656 33.7106 82.0649 33.7566 82.2336 33.7873C82.3408 33.818 82.4635 33.8334 82.5862 33.8334C82.6473 33.8334 82.6933 33.8334 82.6933 33.8334C83.5832 33.8334 84.3499 33.2961 84.6719 32.544C83.8131 31.4848 82.7699 30.6406 81.5741 29.9805C81.5125 29.9498 81.4664 29.9191 81.4053 29.8884C80.1018 29.213 78.6911 28.8446 77.1728 28.8139C76.5898 28.7832 75.9919 28.8292 75.363 28.952C74.7343 29.0748 74.1362 29.2744 73.5534 29.5507C72.9706 29.827 72.4492 30.2261 71.9738 30.7327C71.4984 31.2392 71.1304 31.8686 70.8543 32.6054C70.6089 33.3115 70.4709 34.0636 70.4556 34.8618C70.4402 35.6447 70.5936 36.4122 70.9156 37.1336C71.2377 37.8551 71.7131 38.5458 72.3725 39.1905C73.0166 39.8352 73.8908 40.3418 74.9643 40.7255C75.8998 41.0786 76.8197 41.4163 77.6785 41.7079C78.5529 41.9996 79.3041 42.3373 79.9175 42.6903C80.5465 43.0434 81.0067 43.4425 81.3132 43.8877C81.6202 44.3328 81.6662 44.8854 81.4359 45.5301C81.2671 45.9752 81.0217 46.3437 80.6847 46.6199C80.3472 46.8963 79.9791 47.1112 79.5805 47.2493C79.1814 47.3875 78.7677 47.4642 78.3536 47.4949C77.9394 47.5256 77.5869 47.541 77.3105 47.541C76.375 47.5103 75.547 47.3414 74.8416 47.0344C74.1361 46.7274 73.492 46.4665 72.9246 46.2516C72.9093 46.2362 72.8786 46.2362 72.8633 46.2362C72.6179 46.1441 72.3725 46.098 72.1425 46.0674C72.0965 46.0674 72.0505 46.0674 71.9891 46.0674C71.069 46.0674 70.2869 46.6353 69.9802 47.4335C70.8543 48.462 71.8971 49.2755 73.124 49.9202C73.2007 49.9663 73.2773 50.0123 73.3694 50.043C74.7343 50.7184 76.0991 51.0561 77.4642 51.0868C78.3841 51.1175 79.2585 51.0561 80.1173 50.8873C80.9757 50.7184 81.7579 50.4421 82.479 50.0123C83.1996 49.5978 83.8131 49.0453 84.3038 48.3698C84.7946 47.6791 85.1627 46.8349 85.3775 45.8371C85.7606 43.7342 85.5307 42.0303 84.6719 40.7562C83.8742 39.4515 82.494 38.4998 80.6076 37.8704Z" fill="#253469"/>
<path d="M107.844 39.942V51.0707C109.469 51.0707 110.865 50.1037 111.525 48.7222C111.786 48.1696 111.939 47.5556 111.939 46.9109V39.9573C111.939 36.1198 114.377 33.0037 117.398 33.0037V32.9731C117.49 32.9731 117.567 32.9731 117.659 32.9884C118.288 32.9117 119.162 32.5893 119.177 32.5893C120.542 31.9139 121.493 30.4863 121.493 28.8439H117.398C112.123 28.8132 107.844 33.802 107.844 39.942Z" fill="#253469"/>
<path d="M96.7257 28.8125C91.3428 28.8125 86.972 33.8013 86.972 39.972C86.972 41.9982 86.972 61.9993 86.972 61.9993C88.6286 61.9993 90.0548 61.0323 90.7293 59.6354C90.9902 59.0828 91.1435 58.4688 91.1435 57.8088V51.1161V49.1206C92.7229 50.3794 94.6399 51.1161 96.7101 51.1161C102.093 51.1161 106.464 46.1274 106.464 39.9566C106.464 33.7859 102.109 28.8125 96.7257 28.8125ZM96.7257 46.9409C93.6434 46.9409 91.159 43.8249 91.159 39.972C91.159 36.1192 93.6584 33.0031 96.7257 33.0031C99.8085 33.0031 102.293 36.1192 102.293 39.972C102.293 43.8249 99.8085 46.9409 96.7257 46.9409Z" fill="#253469"/>
<path d="M64.3519 39.9415V49.0747V51.0702C66.0542 51.0702 67.5111 50.1032 68.2165 48.7217C68.4926 48.1691 68.646 47.5551 68.646 46.9104V39.9568V32.9725C68.646 32.9111 68.5693 32.8804 68.5233 32.9265L64.5206 36.8254C64.4133 36.9328 64.3519 37.071 64.3519 37.2091V39.9415Z" fill="#253469"/>
<path d="M68.646 30.8236V28.8281C66.9437 28.8281 65.4868 29.7952 64.7813 31.1767C64.5053 31.7293 64.3519 32.3433 64.3519 32.988V35.4901C64.3519 35.5515 64.4286 35.5822 64.4746 35.5361L68.4772 31.6372C68.5846 31.5297 68.646 31.3916 68.646 31.2535V30.8236Z" fill="url(#paint2_linear_17924_130689)"/>
<path d="M57.9876 37.8704C57.1901 37.6095 56.408 37.3639 55.6412 37.1336C54.8744 36.9034 54.215 36.6578 53.6322 36.3815C53.0495 36.1052 52.6047 35.7675 52.298 35.3991C51.9913 35.0307 51.9146 34.5548 52.0526 34.0022C52.1907 33.3421 52.5281 32.9124 53.0495 32.6821C53.5709 32.4519 54.123 32.3444 54.7057 32.3444C55.5952 32.3751 56.3927 32.544 57.0981 32.851C57.8036 33.158 58.4477 33.4189 59.0304 33.6338C59.2451 33.7106 59.4445 33.7566 59.6132 33.7873C59.7205 33.818 59.8432 33.8334 59.9659 33.8334C60.0272 33.8334 60.0732 33.8334 60.0732 33.8334C60.9627 33.8334 61.7295 33.2961 62.0516 32.544C61.1927 31.4848 60.1499 30.6406 58.9538 29.9805C58.8924 29.9498 58.8464 29.9191 58.785 29.8884C57.4815 29.213 56.0706 28.8446 54.5524 28.8139C53.9696 28.7832 53.3715 28.8292 52.7427 28.952C52.114 29.0748 51.5159 29.2744 50.9331 29.5507C50.3504 29.827 49.829 30.2261 49.3536 30.7327C48.8781 31.2392 48.5101 31.8686 48.234 32.6054C47.9887 33.3115 47.8506 34.0636 47.8353 34.8618C47.82 35.6447 47.9733 36.4122 48.2954 37.1336C48.6174 37.8551 49.0929 38.5458 49.7523 39.1905C50.3964 39.8352 51.2705 40.3418 52.344 40.7255C53.2795 41.0786 54.1997 41.4163 55.0584 41.7079C55.9326 41.9996 56.684 42.3373 57.2975 42.6903C57.9263 43.0434 58.3863 43.4425 58.6931 43.8877C58.9997 44.3328 59.0457 44.8854 58.8157 45.5301C58.647 45.9752 58.4016 46.3437 58.0643 46.6199C57.7269 46.8963 57.3588 47.1112 56.9601 47.2493C56.5613 47.3875 56.1473 47.4642 55.7332 47.4949C55.3192 47.5256 54.9665 47.541 54.6904 47.541C53.7549 47.5103 52.9268 47.3414 52.2213 47.0344C51.5159 46.7274 50.8718 46.4665 50.3044 46.2516C50.289 46.2362 50.2584 46.2362 50.243 46.2362C49.9977 46.1441 49.7523 46.098 49.5222 46.0674C49.4762 46.0674 49.4302 46.0674 49.3689 46.0674C48.4488 46.0674 47.6666 46.6353 47.3599 47.4335C48.234 48.462 49.2769 49.2755 50.5037 49.9202C50.5804 49.9663 50.6571 50.0123 50.7491 50.043C52.114 50.7184 53.4789 51.0561 54.8438 51.0868C55.7639 51.1175 56.6381 51.0561 57.4968 50.8873C58.3556 50.7184 59.1377 50.4421 59.8586 50.0123C60.5793 49.5978 61.1927 49.0453 61.6835 48.3698C62.1743 47.6791 62.5423 46.8349 62.757 45.8371C63.1404 43.7342 62.9104 42.0303 62.0516 40.7562C61.2541 39.4515 59.8739 38.4998 57.9876 37.8704Z" fill="#253469"/>
<path d="M131.246 28.8125C125.863 28.8125 121.493 33.8013 121.493 39.9413C121.493 46.0813 125.863 51.0701 131.246 51.0701C136.629 51.0701 141 46.0813 141 39.9413C141 33.8013 136.629 28.8125 131.246 28.8125ZM131.246 46.8949C128.164 46.8949 125.68 43.7788 125.68 39.9413C125.68 36.1038 128.18 32.9877 131.246 32.9877C134.329 32.9877 136.813 36.1038 136.813 39.9413C136.813 43.7788 134.329 46.8949 131.246 46.8949Z" fill="#253469"/>
<defs>
<linearGradient id="paint0_linear_17924_130689" x1="25.6976" y1="33.0754" x2="42.8905" y2="46.2552" gradientUnits="userSpaceOnUse">
<stop stop-color="#3F60A9"/>
<stop offset="1" stop-color="#253469"/>
</linearGradient>
<linearGradient id="paint1_linear_17924_130689" x1="22.5057" y1="34.5268" x2="38.3798" y2="46.6956" gradientUnits="userSpaceOnUse">
<stop stop-color="#B60E0C"/>
<stop offset="1" stop-color="#590A00"/>
</linearGradient>
<linearGradient id="paint2_linear_17924_130689" x1="64.7803" y1="31.1832" x2="67.7828" y2="32.9152" gradientUnits="userSpaceOnUse">
<stop stop-color="#B60E0C"/>
<stop offset="1" stop-color="#590A00"/>
</linearGradient>
</defs>
</svg>
