<svg width="18" height="19" viewBox="0 0 18 19" fill="none" xmlns="http://www.w3.org/2000/svg">
<path fill-rule="evenodd" clip-rule="evenodd" d="M9.00009 4.62687C6.30873 4.62687 4.12695 6.80865 4.12695 9.5C4.12695 12.1914 6.30873 14.3731 9.00009 14.3731C11.6914 14.3731 13.8732 12.1914 13.8732 9.5C13.8732 6.80865 11.6914 4.62687 9.00009 4.62687ZM3.12695 9.5C3.12695 6.25636 5.75644 3.62687 9.00009 3.62687C12.2437 3.62687 14.8732 6.25636 14.8732 9.5C14.8732 12.7436 12.2437 15.3731 9.00009 15.3731C5.75644 15.3731 3.12695 12.7436 3.12695 9.5ZM9.00009 9C9.27623 9 9.50009 9.22386 9.50009 9.5V11.6493C9.50009 11.9254 9.27623 12.1493 9.00009 12.1493C8.72394 12.1493 8.50009 11.9254 8.50009 11.6493V9.5C8.50009 9.22386 8.72394 9 9.00009 9ZM9.00009 6.85075C8.72394 6.85075 8.50009 7.07461 8.50009 7.35075C8.50009 7.62689 8.72394 7.85075 9.00009 7.85075H9.00546C9.2816 7.85075 9.50546 7.62689 9.50546 7.35075C9.50546 7.07461 9.2816 6.85075 9.00546 6.85075H9.00009Z" fill="#212529"/>
</svg>
