<svg width="100" height="35" viewBox="0 0 100 35" fill="none" xmlns="http://www.w3.org/2000/svg">
<path fill-rule="evenodd" clip-rule="evenodd" d="M13.3465 0.550356C13.0843 0.642083 12.8353 0.746913 12.5863 0.851742C12.3372 0.956571 12.0882 1.0614 11.8522 1.16623C6.80586 3.44627 2.40173 7.50841 2.04782 11.2561C1.86432 13.1692 2.3493 15.1348 3.46343 16.9824C3.98459 17.8487 4.7131 18.6647 5.44168 19.4807C6.28894 20.4296 7.13631 21.3787 7.65782 22.4073C9.50599 26.0108 8.10347 30.2696 3.46343 32.5365C4.04016 32.3792 4.6038 32.1958 5.15431 31.9861C12.1144 29.3916 15.0111 23.7832 12.3372 18.8169C11.8176 17.8413 11.0198 16.9522 10.2237 16.065C9.53353 15.2957 8.8446 14.528 8.33939 13.7065C6.26844 10.3126 7.2646 6.55185 9.93855 3.61662C10.9347 2.52901 12.1799 1.52003 13.661 0.681394C13.8708 0.563458 14.0805 0.445526 14.3033 0.327593C14.5262 0.209659 14.749 0.104829 14.9718 0C14.7765 0.0666563 14.5795 0.131583 14.3821 0.196665L14.3821 0.196668C14.0361 0.310704 13.6886 0.425219 13.3465 0.550356ZM7.52676 23.5342C6.99102 22.2724 6.02388 21.1009 5.044 19.9139C4.27372 18.9809 3.49557 18.0383 2.91292 17.0348C1.66771 14.8989 1.23516 12.6582 1.70703 10.4698C2.46726 6.91877 6.39949 3.00075 11.4459 0.930363L10.6595 1.20554C5.58686 3.09247 1.4842 6.80084 0.396281 10.1685C-0.875143 14.0996 1.03855 17.6769 4.34163 21.2018C7.68406 24.766 6.80585 29.5881 2.45415 32.3268C2.08715 32.5627 1.68081 32.7855 1.26138 32.9951C1.02544 33.113 0.789505 33.2179 0.540464 33.3227C0.802611 33.2441 1.06476 33.1524 1.32691 33.0475C1.58906 32.9558 1.8381 32.851 2.07404 32.7462C2.5328 32.5496 2.96535 32.3399 3.37168 32.1172C6.17667 30.5709 7.73649 28.2254 7.94617 25.8536C7.9986 25.0412 7.84131 24.2681 7.52676 23.5342ZM46.3773 13.772C47.0326 13.9686 47.7012 14.1782 48.3825 14.401C49.9949 14.9382 51.1745 15.7507 51.8563 16.8645C52.5904 17.9521 52.7868 19.4066 52.4594 21.2018C52.2758 22.0536 51.9612 22.7743 51.5417 23.3639C51.1223 23.9405 50.598 24.4122 49.9821 24.766C49.3657 25.1329 48.6971 25.3688 47.9635 25.5129C47.2295 25.6571 46.4822 25.7095 45.6959 25.6833C44.5291 25.657 43.3626 25.3688 42.1961 24.7922C42.1174 24.766 42.0519 24.7267 41.9863 24.6874C40.9377 24.137 40.0464 23.4425 39.2993 22.5646C39.5614 21.8832 40.2299 21.3984 41.0164 21.3984H41.1475C41.344 21.4246 41.5538 21.4639 41.7635 21.5425C41.7766 21.5425 41.8028 21.5425 41.8159 21.5556C42.3009 21.7391 42.8514 21.9618 43.4543 22.2239C44.0573 22.4859 44.765 22.6301 45.5645 22.6563C45.8008 22.6563 46.1021 22.6432 46.4561 22.617C46.81 22.5908 47.1636 22.5253 47.5047 22.4073C47.8454 22.2894 48.16 22.106 48.4485 21.8701C48.7365 21.6342 48.9462 21.3197 49.0905 20.9397C49.2874 20.3893 49.248 19.9176 48.9856 19.5376C48.7237 19.1576 48.3303 18.8169 47.7927 18.5155C47.2684 18.2142 46.6264 17.9259 45.8791 17.6769C45.145 17.4279 44.3588 17.1396 43.5592 16.8383C42.6417 16.5107 41.8946 16.0782 41.344 15.5279C40.7804 14.9775 40.3741 14.3879 40.0988 13.772C39.8236 13.1561 39.6925 12.5009 39.7056 11.8326C39.7187 11.1513 39.8367 10.5092 40.0464 9.9064C40.2824 9.27745 40.5969 8.74018 41.0033 8.30776C41.4096 7.87533 41.8552 7.53464 42.3533 7.29878C42.8514 7.06289 43.3626 6.89254 43.9 6.78771C44.4375 6.68287 44.9486 6.6436 45.4468 6.66978C46.7445 6.69601 47.9503 7.01047 49.0644 7.58706C49.09 7.59993 49.1126 7.61281 49.1352 7.6257C49.1585 7.63902 49.1819 7.65235 49.2086 7.66566C50.2307 8.22915 51.1223 8.94985 51.8563 9.85399C51.5811 10.4961 50.9258 10.9547 50.1652 10.9547H50.0736C49.9688 10.9547 49.8639 10.9416 49.7723 10.9154C49.6281 10.8892 49.4577 10.8499 49.2741 10.7844C48.7759 10.6009 48.2255 10.3782 47.6224 10.1161C47.0198 9.85399 46.3379 9.70983 45.5778 9.68364C45.0796 9.68364 44.6079 9.77538 44.1621 9.97192C43.7165 10.1685 43.4281 10.5354 43.3102 11.0989C43.1922 11.5706 43.2577 11.9768 43.5199 12.2913C43.782 12.6058 44.1621 12.894 44.6601 13.1299C45.1583 13.3658 45.722 13.5755 46.3773 13.772ZM71.6615 16.17V25.6701C73.0508 25.6701 74.2437 24.8446 74.8074 23.6653C75.0304 23.1935 75.1614 22.6694 75.1614 22.1191V16.1831C75.1614 12.9072 77.2454 10.2471 79.8276 10.2471V10.2209C79.9064 10.2209 79.9718 10.2209 80.0506 10.234C80.5007 10.1791 81.0985 9.97696 81.2879 9.91291C81.3245 9.90053 81.3458 9.89331 81.3479 9.89331C82.5147 9.31672 83.3275 8.09808 83.3275 6.69601H79.8276C75.3185 6.66978 71.6615 10.9285 71.6615 16.17ZM53.8222 16.1962C53.8222 10.9285 57.5579 6.66978 62.1587 6.66978C66.7594 6.66978 70.4819 10.9154 70.4819 16.1831C70.4819 21.4508 66.7461 25.7095 62.1454 25.7095C60.376 25.7095 58.7375 25.0805 57.3876 24.006V25.7095V31.4227C57.3876 31.9861 57.2566 32.5103 57.0336 32.982C56.4571 34.1745 55.2381 35 53.8222 35V16.1962ZM57.4009 16.1962C57.4009 19.4852 59.5242 22.1453 62.1587 22.1453C64.7935 22.1453 66.9169 19.4852 66.9169 16.1962C66.9169 12.9072 64.7935 10.2471 62.1587 10.2471C59.5371 10.2471 57.4009 12.9072 57.4009 16.1962ZM34.4888 16.17V23.9667V25.6701C35.9438 25.6701 37.189 24.8446 37.7919 23.6653C38.0279 23.1935 38.1589 22.6694 38.1589 22.1191V16.1831V10.2209C38.1589 10.1685 38.0934 10.1423 38.0541 10.1816L34.633 13.5099C34.5412 13.6016 34.4888 13.7196 34.4888 13.8375V16.17ZM38.1589 6.68287V8.38635V8.75327C38.1589 8.8712 38.1065 8.98913 38.0147 9.08087L34.5937 12.4092C34.5544 12.4485 34.4888 12.4223 34.4888 12.3699V10.234C34.4888 9.68364 34.6199 9.15947 34.8558 8.68776C35.4588 7.5084 36.704 6.68287 38.1589 6.68287ZM29.0492 14.401C28.3676 14.1782 27.6992 13.9686 27.0438 13.772C26.3884 13.5755 25.8248 13.3658 25.3267 13.1299C24.8286 12.894 24.4485 12.6058 24.1863 12.2913C23.9242 11.9768 23.8587 11.5706 23.9766 11.0989C24.0946 10.5354 24.383 10.1685 24.8286 9.97192C25.2743 9.77538 25.7462 9.68364 26.2442 9.68364C27.0044 9.70983 27.6861 9.85399 28.289 10.1161C28.8919 10.3782 29.4425 10.6009 29.9405 10.7844C30.124 10.8499 30.2944 10.8892 30.4386 10.9154C30.5303 10.9416 30.6352 10.9547 30.7401 10.9547H30.8318C31.5921 10.9547 32.2475 10.4961 32.5227 9.85399C31.7887 8.94985 30.8974 8.22915 29.875 7.66566C29.8488 7.65257 29.8259 7.63946 29.8029 7.62636C29.78 7.61326 29.757 7.60015 29.7308 7.58706C28.6167 7.01047 27.4108 6.69601 26.1131 6.66978C25.6151 6.6436 25.1039 6.68287 24.5665 6.78771C24.029 6.89254 23.5179 7.06289 23.0198 7.29878C22.5217 7.53464 22.076 7.87533 21.6697 8.30776C21.2634 8.74018 20.9488 9.27745 20.7129 9.9064C20.5031 10.5092 20.3852 11.1513 20.3721 11.8326C20.359 12.5009 20.49 13.1561 20.7653 13.772C21.0405 14.3879 21.4469 14.9775 22.0105 15.5279C22.561 16.0782 23.3081 16.5107 24.2257 16.8383C25.0253 17.1396 25.8117 17.4279 26.5457 17.6769C27.2928 17.9259 27.9351 18.2142 28.4594 18.5155C28.9968 18.8169 29.39 19.1576 29.6522 19.5376C29.9143 19.9176 29.9536 20.3893 29.757 20.9397C29.6129 21.3197 29.4031 21.6342 29.1148 21.8701C28.8264 22.106 28.5118 22.2894 28.171 22.4073C27.8302 22.5253 27.4763 22.5908 27.1224 22.617C26.7685 22.6432 26.4671 22.6563 26.2311 22.6563C25.4316 22.6301 24.7238 22.4859 24.1208 22.2239C23.5179 21.9618 22.9673 21.7391 22.4824 21.5556C22.4693 21.5425 22.4431 21.5425 22.4299 21.5425C22.2202 21.4639 22.0105 21.4246 21.8139 21.3984H21.6828C20.8964 21.3984 20.2279 21.8832 19.9658 22.5646C20.7129 23.4425 21.6042 24.137 22.6528 24.6874L22.653 24.6875C22.7185 24.7268 22.784 24.766 22.8625 24.7922C24.029 25.3688 25.1956 25.657 26.3622 25.6833C27.1486 25.7095 27.8958 25.6571 28.6298 25.5129C29.3638 25.3688 30.0323 25.1329 30.6484 24.766C31.2644 24.4122 31.7887 23.9405 32.2081 23.3639C32.6276 22.7743 32.9421 22.0536 33.1257 21.2018C33.4534 19.4066 33.2567 17.9521 32.5227 16.8645C31.8411 15.7507 30.6615 14.9382 29.0492 14.401ZM83.3275 16.17C83.3275 10.9285 87.0628 6.66978 91.6635 6.66978C96.2643 6.66978 100 10.9285 100 16.17C100 21.4115 96.2643 25.6701 91.6635 25.6701C87.0628 25.6701 83.3275 21.4115 83.3275 16.17ZM86.9057 16.17C86.9057 19.4459 89.0291 22.106 91.6635 22.106C94.2984 22.106 96.4218 19.4459 96.4218 16.17C96.4218 12.894 94.2984 10.234 91.6635 10.234C89.0424 10.234 86.9057 12.894 86.9057 16.17Z" fill="white"/>
</svg>
