<svg width="24" height="24" viewBox="0 0 25 24" fill="none" xmlns="http://www.w3.org/2000/svg">
<path d="M8.83333 5C4.78472 5 1.5 8.13542 1.5 12C1.5 15.8646 4.78472 19 8.83333 19H16.1667C20.2153 19 23.5 15.8646 23.5 12C23.5 8.13542 20.2153 5 16.1667 5H8.83333ZM16.1667 8.5C17.1391 8.5 18.0718 8.86875 18.7594 9.52513C19.447 10.1815 19.8333 11.0717 19.8333 12C19.8333 12.9283 19.447 13.8185 18.7594 14.4749C18.0718 15.1313 17.1391 15.5 16.1667 15.5C15.1942 15.5 14.2616 15.1313 13.5739 14.4749C12.8863 13.8185 12.5 12.9283 12.5 12C12.5 11.0717 12.8863 10.1815 13.5739 9.52513C14.2616 8.86875 15.1942 8.5 16.1667 8.5Z" fill="#41B237"/>
</svg>
