<svg width="24" height="24" viewBox="0 0 25 24" fill="none" xmlns="http://www.w3.org/2000/svg">
<path d="M16.1667 7.33333C18.867 7.33333 21.0556 9.4224 21.0556 12C21.0556 14.5776 18.867 16.6667 16.1667 16.6667H8.83333C6.13299 16.6667 3.94444 14.5776 3.94444 12C3.94444 9.4224 6.13299 7.33333 8.83333 7.33333H16.1667ZM23.5 12C23.5 8.13542 20.2153 5 16.1667 5H8.83333C4.78472 5 1.5 8.13542 1.5 12C1.5 15.8646 4.78472 19 8.83333 19H16.1667C20.2153 19 23.5 15.8646 23.5 12ZM8.83333 15.5C9.80579 15.5 10.7384 15.1313 11.4261 14.4749C12.1137 13.8185 12.5 12.9283 12.5 12C12.5 11.0717 12.1137 10.1815 11.4261 9.52513C10.7384 8.86875 9.80579 8.5 8.83333 8.5C7.86087 8.5 6.92824 8.86875 6.24061 9.52513C5.55298 10.1815 5.16667 11.0717 5.16667 12C5.16667 12.9283 5.55298 13.8185 6.24061 14.4749C6.92824 15.1313 7.86087 15.5 8.83333 15.5Z" fill="#D0D5DD"/>
</svg>
