<svg width="24" height="24" viewBox="0 0 25 26" fill="none" xmlns="http://www.w3.org/2000/svg">
<path d="M11.6906 15.4263C12.5003 14.8467 13.115 14.0024 13.4439 13.0182C13.7727 12.034 13.7982 10.9622 13.5167 9.9612C13.2351 8.9602 12.6614 8.08319 11.8803 7.45987C11.0993 6.83654 10.1524 6.5 9.17969 6.5C8.20698 6.5 7.26009 6.83654 6.47905 7.45987C5.69801 8.08319 5.12428 8.9602 4.84271 9.9612C4.56113 10.9622 4.58665 12.034 4.91551 13.0182C5.24436 14.0024 5.85908 14.8467 6.66877 15.4263C5.20413 16.0066 3.95329 17.0806 3.10289 18.4879C3.0582 18.5593 3.02715 18.6396 3.01156 18.724C2.99597 18.8084 2.99615 18.8954 3.01208 18.9797C3.02801 19.0641 3.05937 19.1442 3.10435 19.2154C3.14933 19.2866 3.20703 19.3475 3.27409 19.3945C3.34115 19.4415 3.41623 19.4738 3.49498 19.4893C3.57372 19.5049 3.65456 19.5034 3.73279 19.4851C3.81101 19.4668 3.88507 19.4319 3.95065 19.3825C4.01624 19.3332 4.07204 19.2703 4.11481 19.1975C4.66335 18.2904 5.41396 17.5451 6.29847 17.0291C7.18297 16.5131 8.17336 16.2428 9.17969 16.2428C10.186 16.2428 11.1764 16.5131 12.0609 17.0291C12.9454 17.5451 13.696 18.2904 14.2446 19.1975C14.3332 19.3391 14.47 19.4375 14.6256 19.4714C14.7812 19.5054 14.9429 19.4722 15.0758 19.3789C15.2088 19.2857 15.3023 19.14 15.3361 18.9732C15.3699 18.8065 15.3413 18.6322 15.2565 18.4879C14.4061 17.0806 13.1552 16.0066 11.6906 15.4263ZM5.85697 11.3733C5.85697 10.6668 6.05184 9.97611 6.41695 9.38864C6.78205 8.80118 7.30099 8.34331 7.90814 8.07293C8.51529 7.80255 9.18337 7.7318 9.82792 7.86964C10.4725 8.00748 11.0645 8.34771 11.5292 8.84731C11.9939 9.3469 12.3103 9.98343 12.4386 10.6764C12.5668 11.3694 12.501 12.0876 12.2495 12.7404C11.998 13.3931 11.5721 13.9511 11.0257 14.3436C10.4793 14.7361 9.83686 14.9456 9.17969 14.9456C8.29875 14.9446 7.45419 14.5678 6.83128 13.8981C6.20836 13.2284 5.85797 12.3204 5.85697 11.3733ZM21.726 19.3867C21.5918 19.4808 21.4283 19.5137 21.2715 19.4782C21.1148 19.4427 20.9775 19.3418 20.89 19.1975C20.3421 18.2899 19.5916 17.5442 18.7069 17.0284C17.8222 16.5127 16.8315 16.2432 15.8251 16.2447C15.6649 16.2447 15.5112 16.1762 15.3979 16.0544C15.2846 15.9326 15.221 15.7674 15.221 15.5951C15.221 15.4229 15.2846 15.2577 15.3979 15.1359C15.5112 15.0141 15.6649 14.9456 15.8251 14.9456C16.3144 14.9451 16.7976 14.8285 17.2401 14.6039C17.6827 14.3794 18.0736 14.0525 18.385 13.6467C18.6964 13.241 18.9206 12.7662 19.0416 12.2565C19.1625 11.7467 19.1773 11.2145 19.0848 10.6979C18.9923 10.1814 18.7948 9.6931 18.5064 9.26808C18.218 8.84306 17.8459 8.49176 17.4166 8.23929C16.9873 7.98681 16.5115 7.83938 16.0231 7.80755C15.5346 7.77571 15.0457 7.86025 14.5912 8.05512C14.5171 8.08956 14.4373 8.10769 14.3566 8.10842C14.2758 8.10915 14.1958 8.09248 14.1211 8.05939C14.0465 8.0263 13.9788 7.97746 13.922 7.91576C13.8652 7.85406 13.8205 7.78075 13.7905 7.70016C13.7606 7.61956 13.7459 7.53333 13.7474 7.44654C13.749 7.35976 13.7667 7.27419 13.7995 7.19489C13.8323 7.11558 13.8796 7.04416 13.9385 6.98483C13.9975 6.9255 14.0669 6.87947 14.1426 6.84947C15.1828 6.40345 16.3398 6.3874 17.3904 6.80441C18.4409 7.22142 19.3106 8.04193 19.8317 9.10767C20.3528 10.1734 20.4883 11.4088 20.2121 12.5757C19.9359 13.7425 19.2676 14.758 18.336 15.4263C19.8007 16.0066 21.0515 17.0806 21.9019 18.4879C21.9894 18.6322 22.02 18.8079 21.987 18.9765C21.954 19.145 21.8601 19.2926 21.726 19.3867Z" fill="#2847A0"/>
</svg>
