<svg width="24" height="24" viewBox="0 0 24 24" fill="none" xmlns="http://www.w3.org/2000/svg">
<path fill-rule="evenodd" clip-rule="evenodd" d="M7.84873 3.3108C9.01571 1.25938 10.5604 3.8147e-06 12.229 3.8147e-06C13.9383 3.8147e-06 15.4565 1.32156 16.5342 3.46232C18.6815 3.11365 20.467 3.4769 21.4487 4.64686C22.3162 5.68074 22.4227 7.18561 21.8953 8.88427C23.2229 9.88501 24 11.0742 24 12.3325C24 13.7779 22.9745 15.0754 21.2669 16.0631C21.707 17.6771 21.5924 19.0694 20.8161 19.9946C19.8681 21.1244 18.1031 21.3552 15.9804 20.8192C14.8226 22.7937 13.3083 24 11.6752 24C10.0252 24 8.55313 22.7685 7.48365 20.7573C5.36547 21.0881 3.60623 20.7204 2.6345 19.5623C1.74674 18.5044 1.65595 16.9531 2.2258 15.2058C0.824444 14.1868 0 12.964 0 11.6679C0 10.315 0.898346 9.09175 2.41349 8.13085C1.93753 6.46968 2.03923 5.03468 2.8333 4.08834C3.80795 2.92679 5.64607 2.71548 7.84873 3.3108Z" fill="#3767B2"/>
<path d="M16.8306 8.90491L13.7368 11.9049L10.6431 14.9049L7.83057 12.1776" stroke="white" stroke-width="2" stroke-linecap="round" stroke-linejoin="round"/>
</svg>
