<svg width="24" height="24" viewBox="0 0 24 24" fill="none" xmlns="http://www.w3.org/2000/svg">
<rect width="24" height="24" rx="4" fill="url(#paint0_radial_843_24298)"/>
<g clip-path="url(#clip0_843_24298)">
<path d="M17.125 10.677C16.877 8.58315 15.1137 6.95764 12.9648 6.95764C11.5872 6.95764 10.2923 7.64642 9.52088 8.77601C9.24537 8.6658 8.96986 8.63825 8.69435 8.63825C7.5372 8.63825 6.57292 9.43723 6.32496 10.5668C5.22292 11.1454 4.50659 12.3025 4.50659 13.5699C4.50659 14.4515 4.8372 15.3056 5.47088 15.9393C6.077 16.5729 6.93108 16.9311 7.81271 16.9587C7.84027 16.9587 7.84027 16.9587 12.2209 16.9587C16.2433 16.9587 16.326 16.9587 16.3535 16.9587H16.3811C17.2076 16.9311 17.979 16.5729 18.5576 15.9944C19.1362 15.3883 19.4668 14.6168 19.4668 13.7627C19.4668 12.3025 18.5025 11.0627 17.125 10.677ZM7.84027 15.4434C6.82088 15.4158 6.0219 14.5893 6.0219 13.5699C6.0219 12.7709 6.51782 12.0546 7.28924 11.7791C7.59231 11.6689 7.81271 11.3934 7.78516 11.0627V11.0352C7.78516 10.5393 8.19843 10.1536 8.6668 10.1536C8.8872 10.1536 9.10761 10.2362 9.27292 10.4015C9.46578 10.5668 9.71374 10.6495 9.93414 10.5944C10.1821 10.5393 10.375 10.374 10.4576 10.1536C10.8709 9.16172 11.8627 8.5005 12.9372 8.5005C14.425 8.5005 15.6097 9.71274 15.6097 11.1729C15.6097 11.2005 15.6097 11.2556 15.6097 11.2832C15.5821 11.6964 15.9127 12.0546 16.326 12.0821C17.2076 12.1372 17.9239 12.8811 17.9239 13.7627C17.9239 14.6719 17.2076 15.4158 16.2984 15.4434C16.2158 15.4434 14.5352 15.4434 12.1933 15.4434C10.2648 15.4434 7.92292 15.4434 7.84027 15.4434Z" fill="white"/>
</g>
<defs>
<radialGradient id="paint0_radial_843_24298" cx="0" cy="0" r="1" gradientUnits="userSpaceOnUse" gradientTransform="translate(12 12) rotate(90) scale(12)">
<stop stop-color="#3265EE"/>
<stop offset="1" stop-color="#2847A0"/>
</radialGradient>
<clipPath id="clip0_843_24298">
<rect width="15.4286" height="15.4286" fill="white" transform="translate(4.28613 4.28516)"/>
</clipPath>
</defs>
</svg>
