<svg id="SvgjsSvg1019" width="24" height="24"
    xmlns="http://www.w3.org/2000/svg" version="1.1"
    xmlns:xlink="http://www.w3.org/1999/xlink"
    xmlns:svgjs="http://svgjs.com/svgjs">
    <defs id="SvgjsDefs1020"></defs>
    <g id="SvgjsG1021">
        <svg xmlns="http://www.w3.org/2000/svg" viewBox="0 0 512 512" width="24" height="24">
            <path fill="#ffffff" fill-rule="evenodd" d="M107.071 25.467h242.008l71.522 72.242v350.033h-313.53z" clip-rule="evenodd" class="colorFFF svgShape"></path>
            <path fill="#000000" d="M420.601 454.602h-313.53a6.856 6.856 0 0 1-6.859-6.859V25.467c0-3.79 3.069-6.86 6.859-6.86h242.008c1.831 0 3.583.729 4.877 2.033l71.522 72.242a6.867 6.867 0 0 1 1.986 4.827v350.033a6.86 6.86 0 0 1-6.863 6.86zm-306.669-13.719h299.813V100.531L346.22 32.327H113.932v408.556z" class="color4C8CF9 svgShape"></path>
            <path fill="#000000" fill-rule="evenodd" d="M129.98 177.615h313.532v105.6H129.98z" clip-rule="evenodd" class="color4C8CF9 svgShape"></path>
            <path fill="#fefefe" d="M213.358 258.326h-11.056v-9.818h11.056v9.818zm11.321 0v-55.961h19.047c6.793 0 12.387 2.157 16.782 6.594 4.394 4.304 6.523 9.953 6.523 16.817v9.278c0 6.864-2.13 12.513-6.523 16.821-4.396 4.305-9.989 6.451-16.782 6.451h-19.047zm11.189-47.215v38.608h7.326c3.994 0 7.057-1.345 9.322-4.038 2.264-2.689 3.464-6.318 3.464-10.627v-9.416c0-4.304-1.2-7.8-3.464-10.489-2.265-2.689-5.328-4.038-9.322-4.038h-7.326zm84.573 24.347c0 6.864-2.262 12.513-6.524 16.95-4.263 4.579-9.856 6.727-16.785 6.727-6.791 0-12.385-2.148-16.647-6.727-4.258-4.437-6.392-10.085-6.392-16.95v-10.086c0-6.864 2.134-12.508 6.392-17.087 4.263-4.438 9.856-6.727 16.647-6.727 6.796 0 12.522 2.29 16.785 6.727 4.263 4.579 6.524 10.223 6.524 17.087v10.086zm-11.186-10.224c0-4.437-1.064-7.938-3.193-10.76-2.134-2.822-5.194-4.171-8.93-4.171-3.859 0-6.791 1.349-8.787 4.171-2.134 2.822-3.198 6.323-3.198 10.76v10.224c0 4.441 1.064 8.076 3.198 10.902 2.134 2.689 5.062 4.167 8.787 4.167 3.863 0 6.796-1.478 8.93-4.167 2.129-2.827 3.193-6.461 3.193-10.902v-10.224zm61.67 13.995.129.266c0 6.057-1.73 10.765-5.461 14.395-3.863 3.5-9.058 5.245-15.711 5.245-6.663 0-11.99-2.148-16.253-6.452-4.13-4.309-6.259-9.957-6.259-16.684V224.83c0-6.727 2.129-12.371 6.126-16.679 4.13-4.304 9.324-6.594 15.849-6.594 6.925 0 12.256 1.753 16.12 5.387 3.858 3.496 5.727 8.337 5.589 14.527v.266h-10.921c0-3.762-.799-6.589-2.528-8.475-1.868-2.015-4.529-2.96-8.26-2.96-3.326 0-5.992 1.349-7.86 4.038-1.996 2.689-2.927 6.186-2.927 10.489v11.031c0 4.304.931 7.805 3.064 10.627 1.996 2.693 4.791 4.038 8.26 4.038 3.46 0 6.121-.941 7.723-2.827 1.729-1.881 2.528-4.708 2.528-8.471h10.792z" class="colorFEFEFE svgShape"></path>
            <path fill="#000000" d="M263.498 146.357c-14.012 0-26.189-5.08-32.584-13.591a6.858 6.858 0 0 1 1.365-9.604c3.028-2.285 7.328-1.666 9.606 1.363 3.76 5.006 12.038 8.113 21.612 8.113h.018c9.691-.005 18.639-3.263 22.269-8.108a6.86 6.86 0 0 1 9.604-1.372 6.861 6.861 0 0 1 1.376 9.604c-6.286 8.379-19.02 13.591-33.239 13.596l-.027-.001zM143.968 233.173h-.078c-41.685-.455-66.41-11.325-73.49-32.308-9.211-27.307 17.035-62.661 32.457-74.669 2.992-2.322 7.303-1.785 9.627 1.198a6.863 6.863 0 0 1-1.198 9.631c-13.25 10.315-34.504 39.829-27.885 59.454 6.245 18.51 36.424 22.709 60.64 22.975a6.86 6.86 0 0 1-.073 13.719z" class="color4C8CF9 svgShape"></path>
            <path fill="#ffffff" fill-rule="evenodd" d="M349.079 97.709h71.522l-71.522-72.242z" clip-rule="evenodd" class="colorD4E4FF svgShape"></path>
            <path fill="#000000" d="M420.601 104.569H349.08c-3.79 0-6.86-3.07-6.86-6.86V25.467a6.867 6.867 0 0 1 4.249-6.346 6.87 6.87 0 0 1 7.488 1.519l71.522 72.242a6.86 6.86 0 0 1-4.878 11.687zM355.938 90.85h48.217l-48.217-48.703V90.85zM239.339 493.393c-.376 0-.757-.027-1.143-.092l-22.509-3.766a6.863 6.863 0 0 1-5.727-6.77v-35.023a6.857 6.857 0 0 1 6.859-6.859c3.791 0 6.86 3.07 6.86 6.859v29.215l16.782 2.809a6.861 6.861 0 0 1 5.633 7.9 6.854 6.854 0 0 1-6.755 5.727zM325.25 493.393a6.88 6.88 0 0 1-1.146-.092l-22.507-3.766a6.86 6.86 0 0 1-5.727-6.77v-35.023c0-3.789 3.069-6.859 6.859-6.859s6.86 3.07 6.86 6.859v29.215l16.78 2.809a6.863 6.863 0 0 1 5.635 7.9 6.857 6.857 0 0 1-6.754 5.727z" class="color4C8CF9 svgShape"></path>
            <path fill="#000000" fill-rule="evenodd" d="M290.873 65.149c6.259-1.744 13.188.945 16.519 6.865 4.13 7.13 1.73 16.143-5.332 20.18-7.057 4.167-15.978 1.744-19.979-5.382-3.193-5.52-2.396-12.375 1.469-16.95 1.331 1.748 3.726 2.285 5.727 1.207 1.999-1.207 2.798-3.901 1.596-5.92zM228.808 65.149c6.259-1.744 13.185.945 16.65 6.865 3.994 7.13 1.597 16.143-5.463 20.18-6.924 4.167-15.982 1.744-19.979-5.382-3.196-5.52-2.397-12.375 1.466-16.95 1.331 1.748 3.861 2.285 5.727 1.207 2.131-1.207 2.797-3.901 1.599-5.92z" clip-rule="evenodd" class="color4C8CF9 svgShape"></path>
            <path fill="#000000" d="M373.72 326.398H164.61a6.857 6.857 0 0 1-6.86-6.859 6.858 6.858 0 0 1 6.86-6.861h209.11c3.79 0 6.859 3.07 6.859 6.861a6.857 6.857 0 0 1-6.859 6.859zM373.72 361.914H164.61a6.857 6.857 0 0 1-6.86-6.859 6.858 6.858 0 0 1 6.86-6.861h209.11c3.79 0 6.859 3.07 6.859 6.861a6.857 6.857 0 0 1-6.859 6.859zM300.463 397.563H164.61a6.857 6.857 0 0 1-6.86-6.859 6.858 6.858 0 0 1 6.86-6.861h135.853c3.79 0 6.864 3.07 6.864 6.861a6.862 6.862 0 0 1-6.864 6.859z" class="color4C8CF9 svgShape"></path>
        </svg>
    </g>
</svg>