<svg width="24" height="24" viewBox="0 0 8 20" fill="none" xmlns="http://www.w3.org/2000/svg">
<path d="M2.21019 4.2099L3.00019 3.4099V7.9999C3.00019 8.26511 3.10554 8.51947 3.29308 8.707C3.48061 8.89454 3.73497 8.9999 4.00019 8.9999C4.2654 8.9999 4.51976 8.89454 4.70729 8.707C4.89483 8.51947 5.00019 8.26511 5.00019 7.9999V3.4099L5.79018 4.2099C5.88315 4.30363 5.99375 4.37802 6.11561 4.42879C6.23747 4.47956 6.36817 4.50569 6.50019 4.50569C6.6322 4.50569 6.7629 4.47956 6.88476 4.42879C7.00662 4.37802 7.11722 4.30363 7.21019 4.2099C7.30391 4.11693 7.37831 4.00633 7.42908 3.88447C7.47985 3.76261 7.50598 3.63191 7.50598 3.4999C7.50598 3.36788 7.47985 3.23718 7.42908 3.11532C7.37831 2.99346 7.30391 2.88286 7.21019 2.7899L4.71019 0.289896C4.61508 0.198856 4.50294 0.127491 4.38019 0.0798963C4.13672 -0.0201217 3.86365 -0.0201217 3.62018 0.0798963C3.49743 0.127491 3.38529 0.198856 3.29018 0.289896L0.790185 2.7899C0.601881 2.9782 0.496094 3.23359 0.496094 3.4999C0.496094 3.7662 0.601881 4.02159 0.790185 4.2099C0.978489 4.3982 1.23388 4.50399 1.50019 4.50399C1.76649 4.50399 2.02188 4.3982 2.21019 4.2099ZM5.79018 15.7899L5.00019 16.5899V11.9999C5.00019 11.7347 4.89483 11.4803 4.70729 11.2928C4.51976 11.1053 4.2654 10.9999 4.00019 10.9999C3.73497 10.9999 3.48061 11.1053 3.29308 11.2928C3.10554 11.4803 3.00019 11.7347 3.00019 11.9999V16.5899L2.21019 15.7899C2.11695 15.6967 2.00626 15.6227 1.88443 15.5722C1.76261 15.5218 1.63204 15.4958 1.50019 15.4958C1.36833 15.4958 1.23776 15.5218 1.11594 15.5722C0.994113 15.6227 0.883424 15.6967 0.790185 15.7899C0.696946 15.8831 0.622985 15.9938 0.572525 16.1156C0.522065 16.2375 0.496094 16.368 0.496094 16.4999C0.496094 16.6318 0.522065 16.7623 0.572525 16.8841C0.622985 17.006 0.696946 17.1167 0.790185 17.2099L3.29018 19.7099C3.38529 19.8009 3.49743 19.8723 3.62018 19.9199C3.73989 19.9728 3.86931 20.0001 4.00019 20.0001C4.13106 20.0001 4.26048 19.9728 4.38019 19.9199C4.50294 19.8723 4.61508 19.8009 4.71019 19.7099L7.21019 17.2099C7.39849 17.0216 7.50428 16.7662 7.50428 16.4999C7.50428 16.2336 7.39849 15.9782 7.21019 15.7899C7.02188 15.6016 6.76649 15.4958 6.50019 15.4958C6.23388 15.4958 5.97849 15.6016 5.79018 15.7899Z" fill="white"/>
</svg>
