<svg id="SvgjsSvg1001" width="288" height="288" xmlns="http://www.w3.org/2000/svg" version="1.1" xmlns:xlink="http://www.w3.org/1999/xlink" xmlns:svgjs="http://svgjs.com/svgjs"><defs id="SvgjsDefs1002"></defs><g id="SvgjsG1008"><svg xmlns="http://www.w3.org/2000/svg" viewBox="0 0 24 24" width="288" height="288"><path fill="none" d="M0 0h24v24H0Z" data-name="Path 3732"></path><path fill="#000000" d="M3 19.312v-7.875a1.692 1.692 0 0 1 1.687-1.688v9.563h9.563A1.692 1.692 0 0 1 12.562 21H4.687A1.692 1.692 0 0 1 3 19.312Zm3.375-3.375a1.692 1.692 0 0 0 1.687 1.687h7.875a1.692 1.692 0 0 0 1.688-1.687H8.062V6.374a1.692 1.692 0 0 0-1.688 1.687ZM9.75 4.687A1.692 1.692 0 0 1 11.437 3h7.875A1.692 1.692 0 0 1 21 4.687v7.875a1.692 1.692 0 0 1-1.688 1.688h-7.875a1.692 1.692 0 0 1-1.687-1.688Zm1.687 7.875h7.875V4.687h-7.875Z" data-name="Path 2697" class="color525863 svgShape"></path></svg></g></svg>