<?xml version="1.0" standalone="no"?>
<!DOCTYPE svg PUBLIC "-//W3C//DTD SVG 20010904//EN"
 "http://www.w3.org/TR/2001/REC-SVG-20010904/DTD/svg10.dtd">
<svg version="1.0" xmlns="http://www.w3.org/2000/svg"
 width="500.000000pt" height="500.000000pt" viewBox="0 0 500.000000 500.000000"
 preserveAspectRatio="xMidYMid meet">

<g transform="translate(0.000000,500.000000) scale(0.100000,-0.100000)"
fill="#5b7cfd" stroke="none">
<path d="M2330 4994 c-241 -21 -489 -75 -684 -146 -785 -288 -1371 -941 -1570
-1748 -55 -223 -70 -352 -70 -600 0 -248 15 -377 70 -600 177 -717 664 -1321
1329 -1645 235 -114 497 -194 760 -232 164 -23 506 -23 670 0 544 78 1037 321
1420 702 334 331 558 725 669 1175 55 223 70 352 70 600 0 248 -15 377 -70
600 -198 801 -774 1448 -1552 1741 -141 54 -345 106 -504 130 -128 19 -436 32
-538 23z m545 -163 c399 -68 740 -216 1070 -464 103 -78 344 -319 422 -422
169 -224 291 -454 372 -700 248 -755 114 -1546 -372 -2190 -78 -103 -319 -344
-422 -422 -336 -253 -682 -401 -1100 -470 -155 -25 -535 -25 -690 0 -418 69
-764 217 -1100 470 -103 78 -344 319 -422 422 -167 222 -292 457 -372 700
-248 756 -114 1546 372 2190 78 103 319 344 422 422 373 281 773 438 1240 487
106 11 464 -3 580 -23z"/>
<path d="M901 2785 l-282 -506 33 -54 33 -55 352 0 353 0 0 -170 0 -170 115 0
115 0 2 171 3 172 75 21 75 21 3 88 3 87 -81 0 -80 0 0 260 0 260 -79 0 c-51
0 -82 -4 -88 -12 -5 -7 -22 -41 -36 -76 -26 -61 -27 -70 -27 -248 l0 -184
-220 0 -221 0 12 23 c11 20 466 852 476 870 2 4 -54 7 -125 7 l-129 0 -282
-505z"/>
<path d="M2194 3280 c-111 -23 -180 -75 -226 -168 l-33 -67 0 -490 0 -490 24
-53 c30 -67 102 -132 173 -157 44 -16 91 -19 283 -23 249 -4 317 3 396 43 54
28 93 71 123 135 20 43 21 62 24 524 3 456 2 483 -17 545 -26 87 -72 139 -153
177 l-63 29 -245 2 c-135 1 -263 -2 -286 -7z m474 -230 c61 -37 62 -47 62
-490 0 -443 -1 -453 -62 -490 -30 -18 -50 -20 -216 -20 -197 0 -214 4 -262 55
l-25 27 -3 416 c-2 402 -2 418 18 450 40 66 63 72 270 72 168 0 188 -2 218
-20z"/>
<path d="M3401 2785 l-282 -506 33 -54 33 -55 352 0 353 0 0 -170 0 -170 115
0 115 0 2 171 3 172 75 21 75 21 3 88 3 87 -81 0 -80 0 0 260 0 260 -79 0
c-51 0 -82 -4 -88 -12 -5 -7 -22 -41 -36 -76 -26 -61 -27 -70 -27 -248 l0
-184 -220 0 -221 0 12 23 c11 20 466 852 476 870 2 4 -54 7 -125 7 l-129 0
-282 -505z"/>
</g>
</svg>
