<svg width="24" height="24" viewBox="0 0 24 24" fill="none" xmlns="http://www.w3.org/2000/svg">
<rect width="24" height="24" rx="4" fill="url(#paint0_radial_843_24316)"/>
<g clip-path="url(#clip0_843_24316)">
<path d="M9.90652 5.71777H9.74121V5.88308H9.90652V5.71777Z" fill="url(#paint1_linear_843_24316)"/>
<path d="M17.676 8.11475H17.4005H17.2352H17.0975C16.4913 8.11475 16.023 7.61883 16.023 7.01271V6.81986V6.5719C16.023 5.63516 15.2791 4.83618 14.3699 4.83618H14.122H9.30052C8.39134 4.83618 7.64746 5.60761 7.64746 6.54435V17.3994C7.64746 18.3362 8.39134 19.1076 9.30052 19.1076H17.676C18.5852 19.1076 19.3291 18.3362 19.3291 17.3994V15.0301V11.4484V10.1535V10.0158V9.82292C19.3291 8.88618 18.5852 8.11475 17.676 8.11475ZM17.2628 15.8841C17.2352 16.4352 16.7944 16.9035 16.2434 16.9311H10.7332C10.1822 16.9035 9.76889 16.4352 9.71379 15.8841V7.9219C9.79644 7.39843 10.2373 6.98516 10.7607 6.98516H12.8546C13.3781 6.98516 13.8189 7.39843 13.9015 7.9219V8.33516V8.55557C13.9015 9.4923 14.6454 10.2637 15.5546 10.2637H15.9679H16.1056C16.6842 10.2637 17.1526 10.7321 17.1801 11.3382V15.0301V15.8841H17.2628Z" fill="white"/>
<path d="M5.74629 4.80859C5.71874 4.80859 5.71874 4.80859 5.71874 4.80859C5.11262 4.83614 4.6167 5.35961 4.6167 5.99329V17.0688C4.6167 17.0963 4.6167 17.1239 4.64425 17.1515C4.64425 17.179 4.6718 17.179 4.6718 17.2066L5.44323 18.8872C5.49833 18.9974 5.60854 19.08 5.74629 19.08C5.88405 19.08 5.99425 18.9974 6.04935 18.8596L6.82078 17.179C6.82078 17.1515 6.84833 17.1515 6.84833 17.1239C6.84833 17.0963 6.87588 17.0688 6.87588 17.0412V5.99329C6.84833 5.35961 6.35241 4.83614 5.74629 4.80859Z" fill="white"/>
</g>
<defs>
<radialGradient id="paint0_radial_843_24316" cx="0" cy="0" r="1" gradientUnits="userSpaceOnUse" gradientTransform="translate(12 12) rotate(90) scale(12)">
<stop stop-color="#F47B66"/>
<stop offset="1" stop-color="#E05F49"/>
</radialGradient>
<linearGradient id="paint1_linear_843_24316" x1="9.80866" y1="5.67802" x2="9.80866" y2="5.87528" gradientUnits="userSpaceOnUse">
<stop stop-color="#EECA5E"/>
<stop offset="0.5053" stop-color="#F6AF60"/>
<stop offset="1" stop-color="#F08D64"/>
</linearGradient>
<clipPath id="clip0_843_24316">
<rect width="15.4286" height="15.4286" fill="white" transform="translate(4.28613 4.28516)"/>
</clipPath>
</defs>
</svg>
