<svg width="24" height="24" viewBox="0 0 24 24" fill="none" xmlns="http://www.w3.org/2000/svg">
<rect width="24" height="24" rx="4" fill="url(#paint0_radial_843_24305)"/>
<g clip-path="url(#clip0_843_24305)">
<path d="M8.00249 8.66675H7.67188V8.99736H8.00249V8.66675Z" fill="url(#paint1_radial_843_24305)"/>
<path d="M8.41587 15.4718L8.30567 15.6647C8.16791 15.9127 8.0026 16.0504 7.86485 16.0504C7.64444 16.0504 7.39648 15.7474 7.28628 15.3616L6.84546 13.1576C6.76281 12.7994 6.45975 12.5514 6.10158 12.5514C6.07403 12.5514 6.01893 12.5514 5.99138 12.5514C5.99138 12.4412 5.99138 12.2484 5.99138 12.0555C6.12914 10.5127 6.45975 9.96164 6.98322 9.52082C7.53424 9.71368 8.16791 9.71368 8.74648 9.52082L8.96689 9.43817V9.19021C8.96689 9.10755 8.93934 9.0249 8.93934 8.94225C8.93934 8.88715 8.93934 8.83204 8.93934 8.77694C8.93934 8.66674 8.96689 8.58408 8.96689 8.47388C9.07709 7.7851 9.38016 7.17898 9.90362 6.68306C10.0138 6.57286 10.124 6.49021 10.2342 6.40755C10.0965 5.96674 9.84852 5.58102 9.51791 5.27796C9.04954 4.8647 8.47097 4.64429 7.8373 4.64429C7.20362 4.64429 6.5975 4.89225 6.12914 5.33306C5.68832 5.80143 5.41281 6.38 5.35771 7.04123C5.35771 7.09633 5.35771 7.15143 5.35771 7.20653C5.35771 7.34429 5.38526 7.50959 5.41281 7.64735C5.46791 7.97796 5.60567 8.30857 5.79852 8.61163C4.99954 9.35551 4.61383 10.3473 4.47607 12.0004C4.47607 12.6892 4.47607 13.681 5.46791 13.9841L5.79852 15.6922C6.07403 16.8494 6.87301 17.5933 7.8373 17.5933C8.33322 17.5933 8.77403 17.4004 9.15975 17.0422L9.26995 16.932L9.1322 16.1331C8.80158 15.9678 8.58118 15.7473 8.41587 15.4718ZM7.86485 6.18714C8.41587 6.18714 8.85669 6.62796 8.85669 7.17898C8.85669 7.20653 8.85669 7.23408 8.85669 7.26163L8.82914 7.64735L8.52607 7.92286C8.33322 8.08817 8.11281 8.17082 7.86485 8.17082C7.31383 8.17082 6.87301 7.73 6.87301 7.17898C6.87301 6.62796 7.31383 6.18714 7.86485 6.18714Z" fill="white"/>
<path d="M15.3862 13.6811C15.2484 12.0556 14.8902 11.0913 14.0913 10.3198C14.2841 10.0443 14.4219 9.71371 14.477 9.3831C14.5045 9.2178 14.5321 9.08004 14.5321 8.91474C14.5321 8.19841 14.229 7.50963 13.678 7.04127C13.2096 6.628 12.6311 6.40759 11.9974 6.40759C11.3637 6.40759 10.7576 6.65555 10.2892 7.09637C9.82085 7.53718 9.54534 8.14331 9.49024 8.77698C9.49024 8.83208 9.49024 8.88718 9.49024 8.94229C9.49024 9.08004 9.51779 9.24535 9.51779 9.3831C9.57289 9.74127 9.71065 10.0443 9.9035 10.3474C9.10452 11.1188 8.71881 12.0831 8.58105 13.7637C8.58105 14.4525 8.58105 15.4443 9.57289 15.7474L9.9035 17.4556C10.179 18.6127 10.978 19.3566 11.9423 19.3566C12.9066 19.3566 13.7055 18.6127 14.0086 17.428L14.3392 15.7474C15.3862 15.4443 15.3862 14.4525 15.3862 13.6811ZM11.9974 7.95045C12.5484 7.95045 12.9892 8.39127 12.9892 8.94229C12.9892 9.49331 12.5484 9.93412 11.9974 9.93412C11.4464 9.93412 11.0055 9.49331 11.0055 8.94229C11.0055 8.39127 11.4464 7.95045 11.9974 7.95045ZM13.8709 14.3147C13.8433 14.3147 13.7882 14.3147 13.7606 14.3147C13.4025 14.3147 13.0994 14.5902 13.0168 14.9209L12.576 17.0698C12.4657 17.5107 12.2178 17.8137 11.9974 17.8137C11.777 17.8137 11.529 17.5107 11.4188 17.1249L10.978 14.9209C10.8953 14.5627 10.5923 14.3147 10.2341 14.3147C10.2066 14.3147 10.1515 14.3147 10.1239 14.3147C10.1239 14.2045 10.1239 14.0117 10.1239 13.8188C10.2617 12.276 10.5923 11.7249 11.1157 11.2841C11.6668 11.477 12.3004 11.477 12.8515 11.2841C13.4025 11.7525 13.7331 12.3035 13.8709 13.7362C13.8709 13.9841 13.8709 14.2045 13.8709 14.3147Z" fill="white"/>
<path d="M18.224 8.58412C18.4169 8.30861 18.5546 7.978 18.6097 7.64739C18.6373 7.48208 18.6648 7.34432 18.6648 7.17902C18.6648 6.46269 18.3618 5.77392 17.8107 5.30555C17.3424 4.89228 16.7638 4.67188 16.1301 4.67188C15.4965 4.67188 14.8903 4.91983 14.422 5.36065C14.1189 5.66371 13.8709 6.02188 13.7607 6.43514C13.8709 6.49024 13.9536 6.5729 14.0363 6.65555C14.3944 6.98616 14.6699 7.37188 14.8352 7.81269C14.9179 8.0331 14.973 8.25351 15.0005 8.50147C15.0281 8.63922 15.0556 8.80453 15.0556 8.94228C15.0556 9.02494 15.0556 9.10759 15.0281 9.19024V9.4382L15.2485 9.52085C15.7995 9.74126 16.4332 9.74126 16.9842 9.52085C17.5352 9.98922 17.8658 10.5402 18.0036 11.9729C18.0036 12.1933 18.0036 12.4137 18.0036 12.5239C17.976 12.5239 17.9209 12.5239 17.8934 12.5239C17.5352 12.5239 17.2322 12.7994 17.1495 13.13L16.7087 15.3066C16.5985 15.7474 16.3505 16.0504 16.1301 16.0504C15.9648 16.0504 15.7995 15.9127 15.6893 15.6647L15.5791 15.4719C15.4138 15.7474 15.1934 15.9678 14.8628 16.1331L14.6975 16.9321L14.8352 17.0423C15.1934 17.4004 15.6618 17.5933 16.1301 17.5933C17.0944 17.5933 17.8934 16.8494 18.1965 15.6647L18.5271 13.9841C19.5189 13.6811 19.5189 12.6892 19.5189 11.9453C19.3812 10.3198 19.023 9.35555 18.224 8.58412ZM16.1301 8.17086C15.8822 8.17086 15.6618 8.0882 15.4689 7.9229L15.1658 7.64739L15.1383 7.23412C15.1383 7.20657 15.1383 7.17902 15.1383 7.17902C15.1383 6.628 15.5791 6.18718 16.1301 6.18718C16.6812 6.18718 17.122 6.628 17.122 7.17902C17.122 7.73004 16.6812 8.17086 16.1301 8.17086Z" fill="white"/>
</g>
<defs>
<radialGradient id="paint0_radial_843_24305" cx="0" cy="0" r="1" gradientUnits="userSpaceOnUse" gradientTransform="translate(12 12) rotate(90) scale(12)">
<stop stop-color="#F5D55F"/>
<stop offset="1" stop-color="#DAB940"/>
</radialGradient>
<radialGradient id="paint1_radial_843_24305" cx="0" cy="0" r="1" gradientUnits="userSpaceOnUse" gradientTransform="translate(7.74924 8.51965) scale(0.879871)">
<stop offset="0.3249" stop-color="#AF4A6D"/>
<stop offset="0.3944" stop-color="#9C4C73"/>
<stop offset="0.5905" stop-color="#6D5382"/>
<stop offset="0.7639" stop-color="#4B578E"/>
<stop offset="0.9063" stop-color="#365A95"/>
<stop offset="1" stop-color="#2E5B97"/>
</radialGradient>
<clipPath id="clip0_843_24305">
<rect width="15.4286" height="15.4286" fill="white" transform="translate(4.2832 4.28613)"/>
</clipPath>
</defs>
</svg>
