<svg id="SvgjsSvg1001" width="24" height="24"
    xmlns="http://www.w3.org/2000/svg" version="1.1"
    xmlns:xlink="http://www.w3.org/1999/xlink"
    xmlns:svgjs="http://svgjs.com/svgjs">
    <defs id="SvgjsDefs1002"></defs>
    <g id="SvgjsG1008">
        <svg xmlns="http://www.w3.org/2000/svg" viewBox="0 0 24 24" width="24" height="24">
            <path d="M21.92,6.62a1,1,0,0,0-.54-.54A1,1,0,0,0,21,6H16a1,1,0,0,0,0,2h2.59L13,13.59l-3.29-3.3a1,1,0,0,0-1.42,0l-6,6a1,1,0,0,0,0,1.42,1,1,0,0,0,1.42,0L9,12.41l3.29,3.3a1,1,0,0,0,1.42,0L20,9.41V12a1,1,0,0,0,2,0V7A1,1,0,0,0,21.92,6.62Z" fill="#ffffff" class="color000 svgShape"></path>
        </svg>
    </g>
</svg>