<svg width="24" height="24" viewBox="0 0 24 24" fill="none" xmlns="http://www.w3.org/2000/svg"> <path fill-rule="evenodd" clip-rule="evenodd" d="M12.307 1.60532C12.1264 1.46489 11.8736 1.46489 11.693 1.60532L2.69303 8.60532C2.57124 8.70005 2.5 8.8457 2.5 9V20C2.5 20.663 2.76339 21.2989 3.23223 21.7678C3.70107 22.2366 4.33696 22.5 5 22.5H9H15H19C19.663 22.5 20.2989 22.2366 20.7678 21.7678C21.2366 21.2989 21.5 20.663 21.5 20V9C21.5 8.8457 21.4288 8.70005 21.307 8.60532L12.307 1.60532ZM15.5 21.5H19C19.3978 21.5 19.7794 21.342 20.0607 21.0607C20.342 20.7794 20.5 20.3978 20.5 20V9.24454L12 2.63343L3.5 9.24454V20C3.5 20.3978 3.65804 20.7794 3.93934 21.0607C4.22064 21.342 4.60218 21.5 5 21.5H8.5V12C8.5 11.7239 8.72386 11.5 9 11.5H15C15.2761 11.5 15.5 11.7239 15.5 12V21.5ZM9.5 21.5V12.5H14.5V21.5H9.5Z" fill="white"/> </svg>