<?xml version="1.0" encoding="utf-8"?>
<!-- Generator: Adobe Illustrator 25.3.1, SVG Export Plug-In . SVG Version: 6.00 Build 0)  -->
<svg version="1.1" id="Camada_1" xmlns="http://www.w3.org/2000/svg" xmlns:xlink="http://www.w3.org/1999/xlink" x="0px" y="0px"
	 viewBox="0 0 256 93.9" style="enable-background:new 0 0 256 93.9;" xml:space="preserve">
<style type="text/css">
	.st0{fill:#FFFFFF;}
	.st1{fill:url(#SVGID_1_);}
	.st2{fill:url(#SVGID_2_);}
</style>
<g>
	<g>
		<path class="st0" d="M34.4,3.6c-0.7,0.2-1.3,0.5-1.9,0.8c-0.6,0.3-1.3,0.5-1.9,0.8C17.7,11,6.4,21.4,5.5,31
			c-0.5,4.9,0.8,9.9,3.6,14.6c2.9,4.8,8.2,9,10.7,13.9c4.7,9.2,1.1,20.1-10.7,25.9c1.5-0.4,2.9-0.9,4.3-1.4
			c17.8-6.6,25.2-21,18.4-33.6c-2.5-4.6-7.4-8.5-10.2-13.1c-5.3-8.7-2.7-18.3,4.1-25.8c2.5-2.8,5.7-5.3,9.5-7.5
			c0.5-0.3,1.1-0.6,1.7-0.9c0.6-0.3,1.1-0.6,1.7-0.8C37.2,2.7,35.8,3.1,34.4,3.6z"/>
		
			<linearGradient id="SVGID_1_" gradientUnits="userSpaceOnUse" x1="826.6757" y1="1.0776" x2="864.498" y2="22.9143" gradientTransform="matrix(0.9914 0.1305 -0.1305 0.9914 -822.485 -77.2441)">
			<stop  offset="0" style="stop-color:#B60E0C"/>
			<stop  offset="1" style="stop-color:#590A00"/>
		</linearGradient>
		<path class="st1" d="M19.5,62.3c-2.4-5.8-8.4-10.8-11.8-16.6C4.5,40.3,3.4,34.5,4.6,29c1.9-9.1,12-19.1,24.9-24.4
			c-0.7,0.2-1.3,0.5-2,0.7c-13,4.8-23.4,14.3-26.2,22.9C-2,38.2,2.9,47.4,11.4,56.4c8.5,9.1,6.3,21.4-4.8,28.4c-1,0.6-2,1.2-3.1,1.7
			c-0.6,0.3-1.2,0.6-1.8,0.9c0.7-0.2,1.4-0.4,2-0.7s1.3-0.5,1.9-0.8c1.2-0.5,2.3-1,3.3-1.6c7.2-4,11.2-9.9,11.7-16
			C20.7,66.2,20.3,64.2,19.5,62.3z"/>
	</g>
	<g>
		<path class="st0" d="M123.9,39c-1.8-0.6-3.5-1.1-5.1-1.6c-1.7-0.5-3.1-1-4.4-1.7c-1.3-0.6-2.2-1.3-2.9-2.1
			c-0.7-0.8-0.8-1.8-0.5-3.1c0.3-1.4,1-2.4,2.2-2.9c1.1-0.5,2.4-0.7,3.6-0.7c1.9,0.1,3.7,0.4,5.2,1.1c1.5,0.7,2.9,1.2,4.2,1.7
			c0.5,0.2,0.9,0.3,1.3,0.3c0.2,0.1,0.5,0.1,0.8,0.1c0.2,0,0.2,0,0.2,0c1.9,0,3.6-1.2,4.3-2.8c-1.9-2.3-4.1-4.2-6.8-5.6
			c-0.1-0.1-0.2-0.1-0.4-0.2c-2.8-1.5-5.9-2.3-9.3-2.3c-1.3-0.1-2.6,0-3.9,0.3c-1.4,0.3-2.7,0.7-3.9,1.3c-1.3,0.6-2.4,1.5-3.4,2.6
			c-1,1.1-1.8,2.5-2.4,4.1c-0.5,1.6-0.8,3.2-0.9,4.9c0,1.7,0.3,3.4,1,5c0.7,1.6,1.8,3.1,3.2,4.5c1.4,1.4,3.3,2.5,5.7,3.4
			c2.1,0.8,4,1.5,5.9,2.1c1.9,0.6,3.5,1.4,4.9,2.1c1.4,0.8,2.4,1.7,3,2.6c0.7,1,0.8,2.2,0.3,3.6c-0.4,1-0.9,1.8-1.6,2.4
			c-0.7,0.6-1.5,1.1-2.4,1.4c-0.9,0.3-1.8,0.5-2.7,0.5c-0.9,0.1-1.7,0.1-2.3,0.1c-2.1-0.1-3.9-0.4-5.4-1.1c-1.5-0.7-2.9-1.2-4.2-1.7
			c0,0-0.1,0-0.1,0c-0.5-0.2-1.1-0.3-1.6-0.4c-0.1,0-0.2,0-0.3,0c-2,0-3.7,1.2-4.4,3c1.9,2.2,4.2,4,6.9,5.4c0.2,0.1,0.3,0.2,0.5,0.3
			c3,1.5,6,2.2,8.9,2.3c2,0.1,3.9-0.1,5.8-0.4c1.9-0.4,3.6-1,5.2-1.9c1.6-0.9,2.9-2.1,4-3.6c1.1-1.5,1.9-3.3,2.4-5.5
			c0.8-4.6,0.3-8.3-1.5-11.1C131,42.5,128,40.4,123.9,39z"/>
		<path class="st0" d="M183.4,43.5v24.3c3.5,0,6.6-2.1,8-5.1c0.6-1.2,0.9-2.5,0.9-4V43.5c0-8.4,5.3-15.2,11.9-15.2v-0.1
			c0.2,0,0.4,0,0.6,0c1.4-0.2,3.3-0.9,3.3-0.9c3-1.5,5-4.6,5-8.2h-8.9C192.7,19.3,183.4,30.1,183.4,43.5z"/>
		<path class="st0" d="M159.1,19.3c-11.8,0-21.3,10.9-21.3,24.3c0,4.4,0,48.1,0,48.1c3.6,0,6.7-2.1,8.2-5.1c0.6-1.2,0.9-2.5,0.9-4
			V67.9v-4.4c3.4,2.8,7.6,4.4,12.2,4.4c11.8,0,21.3-10.9,21.3-24.3S170.8,19.3,159.1,19.3z M159.1,58.8c-6.7,0-12.2-6.8-12.2-15.2
			s5.4-15.2,12.2-15.2c6.7,0,12.2,6.8,12.2,15.2S165.8,58.8,159.1,58.8z"/>
		<g>
			<path class="st0" d="M88.4,43.5L88.4,43.5v19.9v4.4c3.7,0,6.9-2.1,8.4-5.1c0.6-1.2,0.9-2.5,0.9-4V43.5c0,0,0,0,0,0V28.3
				c0-0.1-0.2-0.2-0.3-0.1l-8.8,8.5c-0.2,0.2-0.4,0.5-0.4,0.8V43.5z"/>
			<linearGradient id="SVGID_2_" gradientUnits="userSpaceOnUse" x1="89.3137" y1="24.4231" x2="95.8669" y2="28.2066">
				<stop  offset="0" style="stop-color:#B60E0C"/>
				<stop  offset="1" style="stop-color:#590A00"/>
			</linearGradient>
			<path class="st2" d="M97.8,23.6v-4.4c-3.7,0-6.9,2.1-8.4,5.1c-0.6,1.2-0.9,2.5-0.9,4v5.5c0,0.1,0.2,0.2,0.3,0.1l8.8-8.5
				c0.2-0.2,0.4-0.5,0.4-0.8V23.6z"/>
		</g>
		<path class="st0" d="M74.5,39c-1.8-0.6-3.5-1.1-5.1-1.6c-1.7-0.5-3.1-1-4.4-1.7c-1.3-0.6-2.2-1.3-2.9-2.1
			c-0.7-0.8-0.8-1.8-0.5-3.1c0.3-1.4,1-2.4,2.2-2.9c1.1-0.5,2.4-0.7,3.6-0.7c1.9,0.1,3.7,0.4,5.2,1.1c1.5,0.7,2.9,1.2,4.2,1.7
			c0.5,0.2,0.9,0.3,1.3,0.3c0.2,0.1,0.5,0.1,0.8,0.1c0.2,0,0.2,0,0.2,0c1.9,0,3.6-1.2,4.3-2.8c-1.9-2.3-4.1-4.2-6.8-5.6
			c-0.1-0.1-0.2-0.1-0.4-0.2c-2.8-1.5-5.9-2.3-9.3-2.3c-1.3-0.1-2.6,0-3.9,0.3c-1.4,0.3-2.7,0.7-3.9,1.3c-1.3,0.6-2.4,1.5-3.4,2.6
			c-1,1.1-1.8,2.5-2.4,4.1c-0.5,1.6-0.8,3.2-0.9,4.9c0,1.7,0.3,3.4,1,5c0.7,1.6,1.8,3.1,3.2,4.5c1.4,1.4,3.3,2.5,5.7,3.4
			c2.1,0.8,4,1.5,5.9,2.1c1.9,0.6,3.5,1.4,4.9,2.1c1.4,0.8,2.4,1.7,3,2.6c0.7,1,0.8,2.2,0.3,3.6c-0.4,1-0.9,1.8-1.6,2.4
			c-0.7,0.6-1.5,1.1-2.4,1.4c-0.9,0.3-1.8,0.5-2.7,0.5c-0.9,0.1-1.7,0.1-2.3,0.1c-2.1-0.1-3.9-0.4-5.4-1.1c-1.5-0.7-2.9-1.2-4.2-1.7
			c0,0-0.1,0-0.1,0c-0.5-0.2-1.1-0.3-1.6-0.4c-0.1,0-0.2,0-0.3,0c-2,0-3.7,1.2-4.4,3c1.9,2.2,4.2,4,6.9,5.4c0.2,0.1,0.3,0.2,0.5,0.3
			c3,1.5,6,2.2,8.9,2.3c2,0.1,3.9-0.1,5.8-0.4c1.9-0.4,3.6-1,5.2-1.9c1.6-0.9,2.9-2.1,4-3.6c1.1-1.5,1.9-3.3,2.4-5.5
			c0.8-4.6,0.3-8.3-1.5-11.1C81.6,42.5,78.6,40.4,74.5,39z"/>
		<path class="st0" d="M234.5,19.3c-11.8,0-21.3,10.9-21.3,24.3s9.5,24.3,21.3,24.3c11.8,0,21.3-10.9,21.3-24.3
			S246.2,19.3,234.5,19.3z M234.5,58.7c-6.7,0-12.2-6.8-12.2-15.2s5.4-15.2,12.2-15.2c6.7,0,12.2,6.8,12.2,15.2
			S241.2,58.7,234.5,58.7z"/>
	</g>
</g>
</svg>
