<svg width="228" height="252" viewBox="0 0 228 252" fill="none" xmlns="http://www.w3.org/2000/svg">
<g clip-path="url(#clip0_4634_14134)">
<path d="M73.98 88.623L44.0296 209.282C42.7676 214.357 43.1461 219.701 45.1106 224.547C47.0752 229.393 50.5248 233.492 54.9643 236.256C66.389 243.36 85.2769 251.049 114.16 251.931C144.776 252.866 165.142 244.072 177.186 236.09C181.442 233.266 184.72 229.195 186.57 224.434C188.421 219.674 188.753 214.458 187.52 209.502L157.514 88.623" fill="#495057"/>
<path d="M115.747 94.2272C155.457 94.2272 187.648 83.3731 187.648 69.9837C187.648 56.5944 155.457 45.7402 115.747 45.7402C76.0376 45.7402 43.8467 56.5944 43.8467 69.9837C43.8467 83.3731 76.0376 94.2272 115.747 94.2272Z" fill="#262626"/>
<path d="M115.747 94.6298C96.4988 94.6298 78.3974 92.1006 64.7771 87.5068C51.0203 82.8681 43.4438 76.6448 43.4438 69.9829C43.4438 63.321 51.0196 57.0975 64.7771 52.4589C78.3974 47.8665 96.4988 45.3359 115.747 45.3359C134.995 45.3359 153.096 47.8655 166.717 52.4589C180.474 57.0975 188.05 63.321 188.05 69.9829C188.05 76.6448 180.474 82.8681 166.717 87.5068C153.096 92.1006 134.995 94.6298 115.747 94.6298ZM115.747 46.1427C96.584 46.1427 78.5739 48.657 65.0339 53.2223C51.6305 57.7417 44.2487 63.6945 44.2487 69.9839C44.2487 76.2733 51.6305 82.226 65.0339 86.7455C78.5739 91.3108 96.5843 93.825 115.747 93.825C134.91 93.825 152.92 91.3108 166.46 86.7455C179.863 82.226 187.245 76.2733 187.245 69.9839C187.245 63.6945 179.863 57.7417 166.46 53.2223C152.92 48.657 134.91 46.1427 115.747 46.1427Z" fill="#262626"/>
<path d="M115.747 84.992C167.92 84.992 210.215 73.3581 210.215 59.007C210.215 44.6558 167.92 33.022 115.747 33.022C63.5739 33.022 21.2793 44.6558 21.2793 59.007C21.2793 73.3581 63.5739 84.992 115.747 84.992Z" fill="#367CFF"/>
<path d="M115.747 85.3941C90.4785 85.3941 66.7175 82.686 48.8413 77.7687C30.8079 72.8083 20.8765 66.1454 20.8765 59.0057C20.8765 51.8661 30.8079 45.2042 48.8413 40.2427C66.7175 35.3255 90.4785 32.6177 115.747 32.6177C141.015 32.6177 164.776 35.3255 182.652 40.2427C200.686 45.2031 210.617 51.8664 210.617 59.0057C210.617 66.145 200.686 72.8073 182.652 77.7687C164.776 82.686 141.015 85.3941 115.747 85.3941ZM115.747 33.4241C90.5487 33.4241 66.8634 36.1222 49.0546 41.0207C40.4187 43.396 33.6454 46.1579 28.922 49.2295C24.1173 52.3542 21.6813 55.6437 21.6813 59.0068C21.6813 62.3699 24.1173 65.6596 28.922 68.784C33.6454 71.8556 40.4187 74.6176 49.0546 76.9932C66.8634 81.8924 90.5473 84.5894 115.747 84.5894C140.947 84.5894 164.63 81.8917 182.439 76.9932C191.075 74.6176 197.848 71.8556 202.571 68.784C207.376 65.6596 209.812 62.3699 209.812 59.0068C209.812 55.6437 207.376 52.3542 202.571 49.2295C197.848 46.1579 191.075 43.396 182.439 41.0207C164.63 36.1222 140.945 33.4255 115.747 33.4255V33.4241Z" fill="#262626"/>
<path d="M159.213 43.8623C159.213 55.3497 139.3 58.0558 118.536 58.5474C95.9129 59.0829 72.2822 55.1739 72.2822 43.8623C72.3148 32.3572 76.9086 21.3345 85.0565 13.2107C93.2044 5.08689 104.242 0.524902 115.748 0.524902C127.255 0.524902 138.292 5.08689 146.44 13.2107C154.588 21.3345 159.182 32.3572 159.214 43.8623H159.213Z" fill="white"/>
<path d="M153.571 41.588C153.467 41.588 153.366 41.5472 153.291 41.4745C153.216 41.4017 153.172 41.3026 153.169 41.1981C153.047 37.0746 152.232 33.001 150.759 29.1478C150.72 29.0481 150.723 28.9374 150.767 28.8399C150.81 28.7425 150.891 28.6663 150.99 28.6282C151.09 28.59 151.201 28.593 151.298 28.6365C151.396 28.68 151.472 28.7604 151.51 28.8601C153.016 32.7975 153.848 36.96 153.974 41.1735C153.977 41.2801 153.938 41.3836 153.865 41.4614C153.792 41.5391 153.691 41.5846 153.584 41.588H153.571Z" fill="#262626"/>
<path d="M147.561 22.4029C147.494 22.403 147.428 22.3864 147.369 22.3544C147.31 22.3225 147.26 22.2763 147.223 22.2201C141.913 14.1152 133.648 8.40334 124.189 6.30077C124.087 6.27561 123.999 6.21178 123.944 6.12284C123.888 6.0339 123.87 5.92686 123.892 5.82449C123.914 5.72212 123.976 5.6325 124.063 5.57466C124.15 5.51683 124.257 5.49536 124.36 5.51481C134.026 7.66293 142.471 13.4991 147.897 21.7806C147.937 21.8412 147.959 21.9115 147.962 21.9839C147.965 22.0562 147.949 22.1281 147.914 22.1918C147.88 22.2556 147.829 22.3088 147.766 22.346C147.704 22.3831 147.633 22.4028 147.561 22.4029Z" fill="#262626"/>
<path d="M114.321 58.9989C95.1037 58.9989 80.4735 55.7675 74.7414 50.1734C72.8415 48.3186 71.8786 46.1949 71.8786 43.8617C71.8623 38.0913 72.985 32.3743 75.1823 27.0385C77.3796 21.7026 80.6084 16.8527 84.6835 12.7666C88.7586 8.68055 93.6001 5.43863 98.9305 3.22661C104.261 1.0146 109.975 -0.124023 115.747 -0.124023C121.518 -0.124023 127.232 1.0146 132.563 3.22661C137.893 5.43863 142.735 8.68055 146.81 12.7666C150.885 16.8527 154.114 21.7026 156.311 27.0385C158.508 32.3743 159.631 38.0913 159.615 43.8617C159.615 49.2804 155.294 53.2682 146.772 55.7144C140.215 57.5966 130.982 58.6546 118.545 58.9489C117.115 58.9822 115.707 58.9989 114.321 58.9989ZM115.746 0.803457C104.329 0.816332 93.3827 5.35686 85.3095 13.4289C77.2362 21.501 72.695 32.4454 72.682 43.861C72.682 45.9694 73.5637 47.8992 75.3026 49.5969C81.2944 55.4478 97.4508 58.6421 118.525 58.1445C135.819 57.7355 158.812 55.8092 158.812 43.8621C158.799 32.4461 154.258 21.5015 146.184 13.4294C138.111 5.35725 127.164 0.816915 115.747 0.8045L115.746 0.803457Z" fill="#262626"/>
<path d="M45.4084 62.4852C48.5256 62.4852 51.0527 59.9585 51.0527 56.8417C51.0527 53.7249 48.5256 51.1982 45.4084 51.1982C42.2912 51.1982 39.7642 53.7249 39.7642 56.8417C39.7642 59.9585 42.2912 62.4852 45.4084 62.4852Z" fill="white"/>
<path d="M45.4085 62.8876C44.2126 62.8876 43.0435 62.533 42.0491 61.8687C41.0548 61.2044 40.2798 60.2601 39.8221 59.1554C39.3644 58.0507 39.2447 56.835 39.478 55.6623C39.7113 54.4895 40.2872 53.4122 41.1328 52.5667C41.9785 51.7212 43.0559 51.1453 44.2288 50.9121C45.4018 50.6788 46.6176 50.7985 47.7224 51.2561C48.8273 51.7137 49.7717 52.4886 50.4361 53.4829C51.1005 54.4771 51.4552 55.646 51.4552 56.8418C51.4533 58.4446 50.8157 59.9814 49.6821 61.1148C48.5485 62.2482 47.0116 62.8858 45.4085 62.8876ZM45.4085 51.6003C44.3717 51.6003 43.3582 51.9077 42.4961 52.4836C41.634 53.0596 40.9621 53.8782 40.5653 54.8359C40.1686 55.7937 40.0648 56.8476 40.267 57.8643C40.4693 58.8811 40.9686 59.815 41.7017 60.548C42.4348 61.2811 43.3689 61.7803 44.3858 61.9825C45.4027 62.1848 46.4567 62.081 47.4146 61.6842C48.3725 61.2875 49.1912 60.6157 49.7672 59.7538C50.3432 58.8918 50.6507 57.8784 50.6507 56.8418C50.6493 55.4521 50.0965 54.1197 49.1137 53.137C48.1309 52.1543 46.7984 51.6017 45.4085 51.6003Z" fill="#262626"/>
<path d="M115.747 78.6473C118.864 78.6473 121.391 76.1206 121.391 73.0038C121.391 69.887 118.864 67.3604 115.747 67.3604C112.63 67.3604 110.103 69.887 110.103 73.0038C110.103 76.1206 112.63 78.6473 115.747 78.6473Z" fill="white"/>
<path d="M115.747 79.0497C114.551 79.0497 113.382 78.6951 112.388 78.0308C111.393 77.3665 110.618 76.4222 110.16 75.3175C109.703 74.2128 109.583 72.9972 109.816 71.8244C110.05 70.6516 110.626 69.5743 111.471 68.7288C112.317 67.8833 113.394 67.3075 114.567 67.0742C115.74 66.8409 116.956 66.9606 118.061 67.4182C119.166 67.8758 120.11 68.6507 120.774 69.645C121.439 70.6392 121.794 71.8081 121.794 73.0039C121.792 74.6068 121.154 76.1435 120.02 77.2769C118.887 78.4103 117.35 79.0479 115.747 79.0497ZM115.747 67.7627C114.71 67.7627 113.697 68.0701 112.835 68.646C111.973 69.2219 111.301 70.0405 110.904 70.9982C110.507 71.9559 110.403 73.0097 110.606 74.0264C110.808 75.043 111.307 75.9769 112.04 76.7099C112.773 77.4429 113.707 77.942 114.724 78.1443C115.741 78.3465 116.795 78.2427 117.753 77.846C118.711 77.4493 119.529 76.7776 120.105 75.9157C120.681 75.0538 120.989 74.0405 120.989 73.0039C120.987 71.6143 120.434 70.282 119.452 69.2994C118.469 68.3169 117.137 67.7642 115.747 67.7627Z" fill="#262626"/>
<path d="M186.072 62.4852C189.19 62.4852 191.717 59.9585 191.717 56.8417C191.717 53.7249 189.19 51.1982 186.072 51.1982C182.955 51.1982 180.428 53.7249 180.428 56.8417C180.428 59.9585 182.955 62.4852 186.072 62.4852Z" fill="white"/>
<path d="M186.073 62.8876C184.877 62.8876 183.708 62.533 182.713 61.8687C181.719 61.2044 180.944 60.2601 180.486 59.1554C180.029 58.0507 179.909 56.835 180.142 55.6623C180.375 54.4895 180.951 53.4122 181.797 52.5667C182.643 51.7212 183.72 51.1453 184.893 50.9121C186.066 50.6788 187.282 50.7985 188.387 51.2561C189.491 51.7137 190.436 52.4886 191.1 53.4829C191.765 54.4771 192.119 55.646 192.119 56.8418C192.117 58.4446 191.48 59.9814 190.346 61.1148C189.213 62.2482 187.676 62.8858 186.073 62.8876ZM186.073 51.6003C185.036 51.6003 184.022 51.9077 183.16 52.4836C182.298 53.0596 181.626 53.8782 181.229 54.8359C180.833 55.7937 180.729 56.8476 180.931 57.8643C181.133 58.8811 181.633 59.815 182.366 60.548C183.099 61.2811 184.033 61.7803 185.05 61.9825C186.067 62.1848 187.121 62.081 188.079 61.6842C189.037 61.2875 189.855 60.6157 190.431 59.7538C191.007 58.8918 191.315 57.8784 191.315 56.8418C191.313 55.4521 190.761 54.1197 189.778 53.137C188.795 52.1543 187.462 51.6017 186.073 51.6003Z" fill="#262626"/>
<path d="M156.077 73.0038C159.194 73.0038 161.721 70.4771 161.721 67.3603C161.721 64.2435 159.194 61.7168 156.077 61.7168C152.96 61.7168 150.433 64.2435 150.433 67.3603C150.433 70.4771 152.96 73.0038 156.077 73.0038Z" fill="white"/>
<path d="M156.077 73.4062C154.881 73.4062 153.712 73.0516 152.718 72.3872C151.723 71.7229 150.948 70.7787 150.491 69.6739C150.033 68.5692 149.913 67.3536 150.146 66.1808C150.38 65.008 150.956 63.9308 151.801 63.0852C152.647 62.2397 153.724 61.6639 154.897 61.4306C156.07 61.1973 157.286 61.3171 158.391 61.7747C159.496 62.2323 160.44 63.0072 161.105 64.0014C161.769 64.9956 162.124 66.1645 162.124 67.3603C162.122 68.9632 161.484 70.4999 160.351 71.6333C159.217 72.7667 157.68 73.4043 156.077 73.4062ZM156.077 62.1188C155.04 62.1188 154.027 62.4261 153.164 63.002C152.302 63.5779 151.63 64.3965 151.234 65.3542C150.837 66.312 150.733 67.3659 150.935 68.3826C151.137 69.3994 151.637 70.3334 152.37 71.0665C153.103 71.7995 154.037 72.2988 155.054 72.501C156.071 72.7033 157.125 72.5995 158.083 72.2028C159.041 71.8061 159.859 71.1343 160.435 70.2723C161.011 69.4104 161.319 68.397 161.319 67.3603C161.317 65.9707 160.765 64.6383 159.782 63.6557C158.799 62.673 157.467 62.1203 156.077 62.1188Z" fill="#262626"/>
<path d="M75.4167 73.7718C78.5339 73.7718 81.061 71.2452 81.061 68.1284C81.061 65.0115 78.5339 62.4849 75.4167 62.4849C72.2995 62.4849 69.7725 65.0115 69.7725 68.1284C69.7725 71.2452 72.2995 73.7718 75.4167 73.7718Z" fill="white"/>
<path d="M75.4168 74.1747C74.2209 74.1747 73.0518 73.8201 72.0574 73.1558C71.0631 72.4915 70.2881 71.5472 69.8304 70.4425C69.3727 69.3378 69.253 68.1222 69.4863 66.9494C69.7196 65.7766 70.2955 64.6993 71.1411 63.8538C71.9868 63.0083 73.0642 62.4325 74.2371 62.1992C75.4101 61.9659 76.6259 62.0856 77.7307 62.5432C78.8356 63.0008 79.78 63.7757 80.4444 64.77C81.1088 65.7642 81.4634 66.9331 81.4634 68.1289C81.4616 69.7318 80.824 71.2685 79.6904 72.4019C78.5568 73.5353 77.0199 74.1729 75.4168 74.1747ZM75.4168 62.8874C74.3799 62.887 73.3662 63.1942 72.5039 63.7699C71.6416 64.3457 70.9694 65.1642 70.5724 66.1219C70.1753 67.0797 70.0713 68.1336 70.2734 69.1505C70.4755 70.1674 70.9747 71.1015 71.7078 71.8346C72.4409 72.5678 73.375 73.0672 74.3919 73.2695C75.4089 73.4719 76.463 73.3681 77.421 72.9714C78.379 72.5747 79.1978 71.9028 79.7738 71.0408C80.3499 70.1788 80.6573 69.1653 80.6572 68.1285C80.6558 66.7392 80.1032 65.4071 79.1208 64.4246C78.1384 63.442 76.8063 62.8892 75.4168 62.8874Z" fill="#262626"/>
<path d="M175.597 38.9016C175.176 40.1755 174.316 41.2579 173.169 41.9549C172.023 42.6519 170.666 42.9178 169.341 42.7051C168.016 42.4923 166.811 41.8148 165.94 40.7939C165.07 39.773 164.591 38.4756 164.591 37.1341C164.591 37.0079 164.596 36.8846 164.604 36.7612C168.459 37.4051 172.131 38.1184 175.597 38.9016Z" fill="white"/>
<path d="M170.235 43.1793C168.631 43.1778 167.094 42.5403 165.961 41.4068C164.827 40.2733 164.19 38.7365 164.188 37.1335C164.188 36.9987 164.194 36.8663 164.202 36.7342L164.231 36.2905L164.67 36.3638C168.546 37.0112 172.252 37.7328 175.686 38.5084L176.118 38.6064L175.979 39.0271C175.582 40.2364 174.812 41.2891 173.781 42.0348C172.749 42.7806 171.508 43.1811 170.235 43.1793ZM164.994 37.2346C165.017 38.4335 165.451 39.5881 166.223 40.506C166.994 41.4239 168.057 42.0496 169.235 42.2786C170.412 42.5077 171.632 42.3263 172.692 41.7647C173.751 41.2031 174.586 40.2952 175.057 39.1925C171.902 38.4889 168.521 37.8312 164.994 37.2346Z" fill="#262626"/>
<path d="M66.2964 37.1343C66.296 38.4645 65.8259 39.7517 64.9689 40.7691C64.1119 41.7865 62.923 42.4685 61.6121 42.695C60.3012 42.9214 58.9524 42.6777 57.8037 42.0068C56.655 41.3359 55.7802 40.2809 55.3335 39.028C58.7857 38.2392 62.4446 37.5151 66.2884 36.8633C66.2936 36.9519 66.2964 37.0429 66.2964 37.1343Z" fill="white"/>
<path d="M60.6526 43.1793C59.4048 43.1775 58.1879 42.7908 57.168 42.0721C56.148 41.3533 55.3747 40.3374 54.9535 39.163L54.8013 38.7363L55.243 38.6355C58.7121 37.843 62.4055 37.1133 66.2201 36.4667L66.6621 36.3916L66.6892 36.8388C66.6951 36.9354 66.6979 37.0348 66.6979 37.1341C66.6961 38.7367 66.0586 40.2732 64.9253 41.4064C63.792 42.5397 62.2554 43.1773 60.6526 43.1793ZM55.8845 39.3152C56.3752 40.3868 57.2127 41.2619 58.262 41.799C59.3113 42.3362 60.5109 42.5042 61.6674 42.2758C62.8238 42.0474 63.8696 41.436 64.6358 40.5403C65.402 39.6446 65.8439 38.5169 65.8903 37.3391C62.4235 37.9347 59.0624 38.5983 55.8845 39.3152Z" fill="#262626"/>
<path d="M124.528 234.146L72.9307 204.757L112.86 134.673L148.538 154.995L155.388 179.979L124.528 234.146Z" fill="white"/>
<path opacity="0.3" d="M132.897 199.237C134.594 199.237 135.97 197.861 135.97 196.164C135.97 194.467 134.594 193.091 132.897 193.091C131.2 193.091 129.824 194.467 129.824 196.164C129.824 197.861 131.2 199.237 132.897 199.237Z" fill="#367CFF"/>
<path opacity="0.3" d="M100.463 183.052C102.16 183.052 103.536 181.676 103.536 179.979C103.536 178.282 102.16 176.906 100.463 176.906C98.7656 176.906 97.3896 178.282 97.3896 179.979C97.3896 181.676 98.7656 183.052 100.463 183.052Z" fill="#367CFF"/>
<path d="M124.678 234.694L72.3818 204.908L112.709 134.125L148.881 154.729L155.82 180.034L124.678 234.694ZM73.4793 204.607L124.377 233.597L154.957 179.924L148.195 155.262L113.01 135.222L73.4793 204.607Z" fill="#262626"/>
<path opacity="0.3" d="M148.538 154.995L139.469 170.912L155.388 179.979L148.538 154.995Z" fill="#367CFF"/>
<path d="M155.388 180.38C155.318 180.38 155.25 180.362 155.189 180.328L139.27 171.261C139.177 171.208 139.109 171.12 139.081 171.017C139.053 170.914 139.067 170.805 139.12 170.712L148.188 154.794C148.227 154.725 148.286 154.669 148.357 154.633C148.429 154.598 148.509 154.584 148.588 154.594C148.667 154.604 148.741 154.637 148.801 154.689C148.861 154.741 148.904 154.81 148.925 154.887L155.776 179.869C155.792 179.929 155.795 179.992 155.783 180.053C155.771 180.113 155.745 180.17 155.708 180.22C155.67 180.269 155.622 180.309 155.566 180.336C155.511 180.364 155.45 180.378 155.388 180.378V180.38ZM140.018 170.761L154.743 179.148L148.406 156.037L140.018 170.761Z" fill="#292A2E"/>
<path d="M110.793 175.936C112.132 175.936 113.218 174.85 113.218 173.51C113.218 172.171 112.132 171.085 110.793 171.085C109.453 171.085 108.367 172.171 108.367 173.51C108.367 174.85 109.453 175.936 110.793 175.936Z" fill="#292A2E"/>
<path d="M133.545 186.279C134.884 186.279 135.97 185.193 135.97 183.853C135.97 182.514 134.884 181.428 133.545 181.428C132.205 181.428 131.119 182.514 131.119 183.853C131.119 185.193 132.205 186.279 133.545 186.279Z" fill="#292A2E"/>
<path d="M123.235 201.154C123.131 201.154 123.03 201.113 122.955 201.04C122.88 200.967 122.836 200.868 122.833 200.763C122.783 198.824 122.238 196.929 121.25 195.259C120.262 193.589 118.865 192.199 117.189 191.22C115.514 190.242 113.616 189.707 111.676 189.666C109.736 189.626 107.818 190.081 106.104 190.989C106.057 191.015 106.005 191.032 105.952 191.038C105.899 191.044 105.845 191.039 105.793 191.024C105.742 191.009 105.694 190.983 105.652 190.949C105.611 190.915 105.577 190.874 105.552 190.826C105.526 190.779 105.511 190.727 105.506 190.673C105.502 190.62 105.508 190.566 105.524 190.515C105.541 190.464 105.567 190.417 105.602 190.376C105.637 190.335 105.68 190.302 105.728 190.278C107.563 189.307 109.617 188.819 111.693 188.863C113.77 188.907 115.801 189.479 117.594 190.527C119.388 191.575 120.884 193.063 121.942 194.85C122.999 196.637 123.583 198.665 123.638 200.741C123.641 200.848 123.601 200.951 123.528 201.029C123.454 201.106 123.353 201.151 123.247 201.154H123.235Z" fill="#292A2E"/>
<path d="M112.903 171.029C111.596 171.012 110.322 170.624 109.228 169.909C109.142 169.847 109.084 169.754 109.066 169.649C109.049 169.544 109.073 169.437 109.134 169.35C109.196 169.264 109.289 169.205 109.393 169.186C109.498 169.168 109.605 169.191 109.692 169.252C109.724 169.274 112.085 170.894 114.723 169.887C114.822 169.852 114.93 169.857 115.026 169.901C115.121 169.945 115.196 170.025 115.233 170.123C115.271 170.221 115.268 170.33 115.226 170.426C115.185 170.523 115.107 170.599 115.01 170.639C114.337 170.897 113.623 171.029 112.903 171.029Z" fill="#292A2E"/>
<path d="M137.749 182.592C137.704 182.592 137.659 182.584 137.616 182.569C134.224 181.388 133.838 178.772 133.823 178.661C133.809 178.555 133.838 178.448 133.902 178.363C133.967 178.278 134.063 178.222 134.169 178.208C134.275 178.193 134.383 178.222 134.468 178.287C134.553 178.352 134.608 178.447 134.623 178.553C134.637 178.649 134.98 180.798 137.883 181.81C137.972 181.841 138.048 181.903 138.096 181.985C138.145 182.067 138.162 182.163 138.147 182.256C138.131 182.35 138.082 182.435 138.01 182.496C137.937 182.558 137.845 182.592 137.75 182.592H137.749Z" fill="#292A2E"/>
<path d="M4.10634 89.0257C4.05351 89.0257 4.0012 89.0153 3.9524 88.9951C3.90359 88.9749 3.85926 88.9452 3.82192 88.9078C3.78458 88.8705 3.75497 88.8261 3.73478 88.7773C3.7146 88.7285 3.70423 88.6762 3.70428 88.6234V77.2721C3.70269 77.2183 3.71193 77.1647 3.73143 77.1145C3.75093 77.0643 3.78031 77.0186 3.81782 76.98C3.85532 76.9414 3.9002 76.9107 3.94979 76.8897C3.99938 76.8687 4.05268 76.8579 4.10652 76.8579C4.16036 76.8579 4.21365 76.8687 4.26324 76.8897C4.31283 76.9107 4.35771 76.9414 4.39522 76.98C4.43273 77.0186 4.4621 77.0643 4.48161 77.1145C4.50111 77.1647 4.51034 77.2183 4.50876 77.2721V88.6234C4.50881 88.6762 4.49843 88.7285 4.47822 88.7774C4.45801 88.8262 4.42837 88.8706 4.391 88.908C4.35362 88.9453 4.30924 88.975 4.2604 88.9952C4.21155 89.0154 4.1592 89.0258 4.10634 89.0257Z" fill="#262626"/>
<path d="M7.81097 83.3501H0.402416C0.295689 83.3501 0.193333 83.3077 0.117865 83.2323C0.0423973 83.1568 0 83.0545 0 82.9478C0 82.8411 0.0423973 82.7387 0.117865 82.6633C0.193333 82.5878 0.295689 82.5454 0.402416 82.5454H7.81097C7.9177 82.5454 8.02006 82.5878 8.09552 82.6633C8.17099 82.7387 8.21339 82.8411 8.21339 82.9478C8.21339 83.0545 8.17099 83.1568 8.09552 83.2323C8.02006 83.3077 7.9177 83.3501 7.81097 83.3501Z" fill="#262626"/>
<path d="M197.351 152.247C197.244 152.247 197.142 152.205 197.066 152.129C196.991 152.054 196.948 151.952 196.948 151.845V134.578C196.948 134.471 196.991 134.369 197.066 134.294C197.142 134.218 197.244 134.176 197.351 134.176C197.457 134.176 197.56 134.218 197.635 134.294C197.711 134.369 197.753 134.471 197.753 134.578V151.845C197.753 151.952 197.711 152.054 197.635 152.129C197.56 152.205 197.457 152.247 197.351 152.247Z" fill="#262626"/>
<path d="M202.987 143.614H191.717C191.61 143.614 191.508 143.571 191.432 143.496C191.357 143.421 191.314 143.318 191.314 143.211C191.314 143.105 191.357 143.002 191.432 142.927C191.508 142.851 191.61 142.809 191.717 142.809H202.987C203.093 142.809 203.196 142.851 203.271 142.927C203.347 143.002 203.389 143.105 203.389 143.211C203.389 143.318 203.347 143.421 203.271 143.496C203.196 143.571 203.093 143.614 202.987 143.614Z" fill="#262626"/>
<path d="M224.78 97.6588C224.727 97.6589 224.675 97.6485 224.626 97.6283C224.577 97.6081 224.533 97.5784 224.496 97.5411C224.458 97.5037 224.429 97.4593 224.408 97.4105C224.388 97.3617 224.378 97.3093 224.378 97.2565V88.6231C224.378 88.5164 224.42 88.414 224.496 88.3386C224.571 88.2631 224.674 88.2207 224.78 88.2207C224.887 88.2207 224.989 88.2631 225.065 88.3386C225.14 88.414 225.183 88.5164 225.183 88.6231V97.2565C225.183 97.3093 225.172 97.3617 225.152 97.4105C225.132 97.4593 225.102 97.5037 225.065 97.5411C225.028 97.5784 224.983 97.6081 224.934 97.6283C224.886 97.6485 224.833 97.6589 224.78 97.6588Z" fill="#262626"/>
<path d="M227.598 93.3423H221.963C221.91 93.3423 221.858 93.3319 221.809 93.3117C221.76 93.2915 221.716 93.2618 221.678 93.2245C221.641 93.1871 221.611 93.1427 221.591 93.0939C221.571 93.0451 221.561 92.9928 221.561 92.94C221.561 92.8871 221.571 92.8348 221.591 92.786C221.611 92.7372 221.641 92.6928 221.678 92.6554C221.716 92.6181 221.76 92.5884 221.809 92.5682C221.858 92.548 221.91 92.5376 221.963 92.5376H227.598C227.705 92.5376 227.807 92.58 227.882 92.6554C227.958 92.7309 228 92.8332 228 92.94C228 93.0467 227.958 93.149 227.882 93.2245C227.807 93.2999 227.705 93.3423 227.598 93.3423Z" fill="#262626"/>
</g>
<defs>
<clipPath id="clip0_4634_14134">
<rect width="228" height="252" fill="white"/>
</clipPath>
</defs>
</svg>
